<?xml version="1.0" encoding="utf-8" standalone="no"?>
<!DOCTYPE svg PUBLIC "-//W3C//DTD SVG 1.1//EN"
  "http://www.w3.org/Graphics/SVG/1.1/DTD/svg11.dtd">
<!-- Created with matplotlib (https://matplotlib.org/) -->
<svg height="345.6pt" version="1.1" viewBox="0 0 460.8 345.6" width="460.8pt" xmlns="http://www.w3.org/2000/svg" xmlns:xlink="http://www.w3.org/1999/xlink">
 <defs>
  <style type="text/css">
*{stroke-linecap:butt;stroke-linejoin:round;}
  </style>
 </defs>
 <g id="figure_1">
  <g id="patch_1">
   <path d="M 0 345.6 
L 460.8 345.6 
L 460.8 0 
L 0 0 
z
" style="fill:#ffffff;"/>
  </g>
  <g id="axes_1">
   <g id="patch_2">
    <path d="M 45.34 317.72 
L 450 317.72 
L 450 25.44 
L 45.34 25.44 
z
" style="fill:#ffffff;"/>
   </g>
   <g id="matplotlib.axis_1">
    <g id="xtick_1">
     <g id="line2d_1">
      <defs>
       <path d="M 0 0 
L 0 3.5 
" id="m7c477b74a2" style="stroke:#000000;stroke-width:0.8;"/>
      </defs>
      <g>
       <use style="stroke:#000000;stroke-width:0.8;" x="90.214747" xlink:href="#m7c477b74a2" y="317.72"/>
      </g>
     </g>
     <g id="text_1">
      <!-- −400 -->
      <defs>
       <path d="M 10.59375 35.5 
L 73.1875 35.5 
L 73.1875 27.203125 
L 10.59375 27.203125 
z
" id="DejaVuSans-8722"/>
       <path d="M 37.796875 64.3125 
L 12.890625 25.390625 
L 37.796875 25.390625 
z
M 35.203125 72.90625 
L 47.609375 72.90625 
L 47.609375 25.390625 
L 58.015625 25.390625 
L 58.015625 17.1875 
L 47.609375 17.1875 
L 47.609375 0 
L 37.796875 0 
L 37.796875 17.1875 
L 4.890625 17.1875 
L 4.890625 26.703125 
z
" id="DejaVuSans-52"/>
       <path d="M 31.78125 66.40625 
Q 24.171875 66.40625 20.328125 58.90625 
Q 16.5 51.421875 16.5 36.375 
Q 16.5 21.390625 20.328125 13.890625 
Q 24.171875 6.390625 31.78125 6.390625 
Q 39.453125 6.390625 43.28125 13.890625 
Q 47.125 21.390625 47.125 36.375 
Q 47.125 51.421875 43.28125 58.90625 
Q 39.453125 66.40625 31.78125 66.40625 
z
M 31.78125 74.21875 
Q 44.046875 74.21875 50.515625 64.515625 
Q 56.984375 54.828125 56.984375 36.375 
Q 56.984375 17.96875 50.515625 8.265625 
Q 44.046875 -1.421875 31.78125 -1.421875 
Q 19.53125 -1.421875 13.0625 8.265625 
Q 6.59375 17.96875 6.59375 36.375 
Q 6.59375 54.828125 13.0625 64.515625 
Q 19.53125 74.21875 31.78125 74.21875 
z
" id="DejaVuSans-48"/>
      </defs>
      <g transform="translate(76.481153 332.318437)scale(0.1 -0.1)">
       <use xlink:href="#DejaVuSans-8722"/>
       <use x="83.789062" xlink:href="#DejaVuSans-52"/>
       <use x="147.412109" xlink:href="#DejaVuSans-48"/>
       <use x="211.035156" xlink:href="#DejaVuSans-48"/>
      </g>
     </g>
    </g>
    <g id="xtick_2">
     <g id="line2d_2">
      <g>
       <use style="stroke:#000000;stroke-width:0.8;" x="168.942374" xlink:href="#m7c477b74a2" y="317.72"/>
      </g>
     </g>
     <g id="text_2">
      <!-- −200 -->
      <defs>
       <path d="M 19.1875 8.296875 
L 53.609375 8.296875 
L 53.609375 0 
L 7.328125 0 
L 7.328125 8.296875 
Q 12.9375 14.109375 22.625 23.890625 
Q 32.328125 33.6875 34.8125 36.53125 
Q 39.546875 41.84375 41.421875 45.53125 
Q 43.3125 49.21875 43.3125 52.78125 
Q 43.3125 58.59375 39.234375 62.25 
Q 35.15625 65.921875 28.609375 65.921875 
Q 23.96875 65.921875 18.8125 64.3125 
Q 13.671875 62.703125 7.8125 59.421875 
L 7.8125 69.390625 
Q 13.765625 71.78125 18.9375 73 
Q 24.125 74.21875 28.421875 74.21875 
Q 39.75 74.21875 46.484375 68.546875 
Q 53.21875 62.890625 53.21875 53.421875 
Q 53.21875 48.921875 51.53125 44.890625 
Q 49.859375 40.875 45.40625 35.40625 
Q 44.1875 33.984375 37.640625 27.21875 
Q 31.109375 20.453125 19.1875 8.296875 
z
" id="DejaVuSans-50"/>
      </defs>
      <g transform="translate(155.20878 332.318437)scale(0.1 -0.1)">
       <use xlink:href="#DejaVuSans-8722"/>
       <use x="83.789062" xlink:href="#DejaVuSans-50"/>
       <use x="147.412109" xlink:href="#DejaVuSans-48"/>
       <use x="211.035156" xlink:href="#DejaVuSans-48"/>
      </g>
     </g>
    </g>
    <g id="xtick_3">
     <g id="line2d_3">
      <g>
       <use style="stroke:#000000;stroke-width:0.8;" x="247.67" xlink:href="#m7c477b74a2" y="317.72"/>
      </g>
     </g>
     <g id="text_3">
      <!-- 0 -->
      <g transform="translate(244.48875 332.318437)scale(0.1 -0.1)">
       <use xlink:href="#DejaVuSans-48"/>
      </g>
     </g>
    </g>
    <g id="xtick_4">
     <g id="line2d_4">
      <g>
       <use style="stroke:#000000;stroke-width:0.8;" x="326.397626" xlink:href="#m7c477b74a2" y="317.72"/>
      </g>
     </g>
     <g id="text_4">
      <!-- 200 -->
      <g transform="translate(316.853876 332.318437)scale(0.1 -0.1)">
       <use xlink:href="#DejaVuSans-50"/>
       <use x="63.623047" xlink:href="#DejaVuSans-48"/>
       <use x="127.246094" xlink:href="#DejaVuSans-48"/>
      </g>
     </g>
    </g>
    <g id="xtick_5">
     <g id="line2d_5">
      <g>
       <use style="stroke:#000000;stroke-width:0.8;" x="405.125253" xlink:href="#m7c477b74a2" y="317.72"/>
      </g>
     </g>
     <g id="text_5">
      <!-- 400 -->
      <g transform="translate(395.581503 332.318437)scale(0.1 -0.1)">
       <use xlink:href="#DejaVuSans-52"/>
       <use x="63.623047" xlink:href="#DejaVuSans-48"/>
       <use x="127.246094" xlink:href="#DejaVuSans-48"/>
      </g>
     </g>
    </g>
   </g>
   <g id="matplotlib.axis_2">
    <g id="ytick_1">
     <g id="line2d_6">
      <defs>
       <path d="M 0 0 
L -3.5 0 
" id="ma8b68450f8" style="stroke:#000000;stroke-width:0.8;"/>
      </defs>
      <g>
       <use style="stroke:#000000;stroke-width:0.8;" x="45.34" xlink:href="#ma8b68450f8" y="285.307626"/>
      </g>
     </g>
     <g id="text_6">
      <!-- −400 -->
      <g transform="translate(10.872813 289.106845)scale(0.1 -0.1)">
       <use xlink:href="#DejaVuSans-8722"/>
       <use x="83.789062" xlink:href="#DejaVuSans-52"/>
       <use x="147.412109" xlink:href="#DejaVuSans-48"/>
       <use x="211.035156" xlink:href="#DejaVuSans-48"/>
      </g>
     </g>
    </g>
    <g id="ytick_2">
     <g id="line2d_7">
      <g>
       <use style="stroke:#000000;stroke-width:0.8;" x="45.34" xlink:href="#ma8b68450f8" y="228.443813"/>
      </g>
     </g>
     <g id="text_7">
      <!-- −200 -->
      <g transform="translate(10.872813 232.243032)scale(0.1 -0.1)">
       <use xlink:href="#DejaVuSans-8722"/>
       <use x="83.789062" xlink:href="#DejaVuSans-50"/>
       <use x="147.412109" xlink:href="#DejaVuSans-48"/>
       <use x="211.035156" xlink:href="#DejaVuSans-48"/>
      </g>
     </g>
    </g>
    <g id="ytick_3">
     <g id="line2d_8">
      <g>
       <use style="stroke:#000000;stroke-width:0.8;" x="45.34" xlink:href="#ma8b68450f8" y="171.58"/>
      </g>
     </g>
     <g id="text_8">
      <!-- 0 -->
      <g transform="translate(31.9775 175.379219)scale(0.1 -0.1)">
       <use xlink:href="#DejaVuSans-48"/>
      </g>
     </g>
    </g>
    <g id="ytick_4">
     <g id="line2d_9">
      <g>
       <use style="stroke:#000000;stroke-width:0.8;" x="45.34" xlink:href="#ma8b68450f8" y="114.716187"/>
      </g>
     </g>
     <g id="text_9">
      <!-- 200 -->
      <g transform="translate(19.2525 118.515406)scale(0.1 -0.1)">
       <use xlink:href="#DejaVuSans-50"/>
       <use x="63.623047" xlink:href="#DejaVuSans-48"/>
       <use x="127.246094" xlink:href="#DejaVuSans-48"/>
      </g>
     </g>
    </g>
    <g id="ytick_5">
     <g id="line2d_10">
      <g>
       <use style="stroke:#000000;stroke-width:0.8;" x="45.34" xlink:href="#ma8b68450f8" y="57.852374"/>
      </g>
     </g>
     <g id="text_10">
      <!-- 400 -->
      <g transform="translate(19.2525 61.651592)scale(0.1 -0.1)">
       <use xlink:href="#DejaVuSans-52"/>
       <use x="63.623047" xlink:href="#DejaVuSans-48"/>
       <use x="127.246094" xlink:href="#DejaVuSans-48"/>
      </g>
     </g>
    </g>
   </g>
   <g id="LineCollection_1"/>
   <g id="LineCollection_2">
    <path clip-path="url(#ped1168c7ae)" d="M 408.708163 58.142821 
L 404.723129 55.26449 
L 404.188486 49.299592 
L 408.708163 45.727522 
L 416.966531 45.304974 
L 422.497056 49.299592 
L 421.912041 55.26449 
L 416.966531 58.528986 
L 408.708163 58.142821 
" style="fill:none;stroke:#472d7b;stroke-width:1.5;"/>
   </g>
   <g id="LineCollection_3">
    <path clip-path="url(#ped1168c7ae)" d="M 45.34 313.726814 
L 50.868544 317.72 
" style="fill:none;stroke:#3b528b;stroke-width:1.5;"/>
    <path clip-path="url(#ped1168c7ae)" d="M 116.413342 317.72 
L 119.665306 316.076514 
L 127.923673 314.357628 
L 136.182041 315.584832 
L 141.068654 317.72 
" style="fill:none;stroke:#3b528b;stroke-width:1.5;"/>
    <path clip-path="url(#ped1168c7ae)" d="M 323.560444 317.72 
L 326.12449 317.104014 
L 332.063371 317.72 
" style="fill:none;stroke:#3b528b;stroke-width:1.5;"/>
    <path clip-path="url(#ped1168c7ae)" d="M 395.143592 317.72 
L 400.449796 314.582792 
L 408.285769 311.755102 
L 408.708163 311.608344 
L 416.966531 311.422585 
L 418.013738 311.755102 
L 425.224898 314.133258 
L 431.109653 317.72 
" style="fill:none;stroke:#3b528b;stroke-width:1.5;"/>
    <path clip-path="url(#ped1168c7ae)" d="M 45.34 248.576593 
L 48.296128 252.106122 
L 49.995186 258.07102 
L 47.615397 264.035918 
L 45.34 266.384765 
" style="fill:none;stroke:#3b528b;stroke-width:1.5;"/>
    <path clip-path="url(#ped1168c7ae)" d="M 45.34 110.623903 
L 46.192829 114.913469 
L 45.34 116.765442 
" style="fill:none;stroke:#3b528b;stroke-width:1.5;"/>
    <path clip-path="url(#ped1168c7ae)" d="M 45.34 39.084221 
L 50.305824 43.334694 
L 53.598367 48.543209 
L 54.058735 49.299592 
L 53.801553 55.26449 
L 53.598367 55.569579 
L 49.683446 61.229388 
L 45.34 65.061981 
" style="fill:none;stroke:#3b528b;stroke-width:1.5;"/>
    <path clip-path="url(#ped1168c7ae)" d="M 127.923673 265.483215 
L 123.058303 264.035918 
L 119.665306 261.585207 
L 117.661533 258.07102 
L 119.665306 253.148868 
L 120.696023 252.106122 
L 127.923673 249.619357 
L 136.182041 251.647981 
L 136.816335 252.106122 
L 139.624954 258.07102 
L 136.182041 263.291447 
L 134.738365 264.035918 
L 127.923673 265.483215 
" style="fill:none;stroke:#3b528b;stroke-width:1.5;"/>
    <path clip-path="url(#ped1168c7ae)" d="M 400.449796 265.161412 
L 399.117823 264.035918 
L 396.210537 258.07102 
L 398.286203 252.106122 
L 400.449796 249.991565 
L 406.904486 246.141224 
L 408.708163 245.274288 
L 416.966531 245.017311 
L 419.525162 246.141224 
L 425.224898 249.248464 
L 428.061209 252.106122 
L 430.074679 258.07102 
L 427.254508 264.035918 
L 425.224898 265.80388 
L 416.966531 269.696285 
L 408.708163 269.42055 
L 400.449796 265.161412 
" style="fill:none;stroke:#3b528b;stroke-width:1.5;"/>
    <path clip-path="url(#ped1168c7ae)" d="M 408.708163 210.776242 
L 408.159216 210.351837 
L 407.71909 204.386939 
L 408.708163 203.461693 
L 416.966531 202.961551 
L 418.633808 204.386939 
L 418.152215 210.351837 
L 416.966531 211.189588 
L 408.708163 210.776242 
" style="fill:none;stroke:#3b528b;stroke-width:1.5;"/>
    <path clip-path="url(#ped1168c7ae)" d="M 408.708163 122.154089 
L 406.612797 120.878367 
L 401.114854 114.913469 
L 403.48853 108.948571 
L 408.708163 105.664869 
L 416.966531 105.328522 
L 423.262961 108.948571 
L 425.224898 113.454278 
L 425.568692 114.913469 
L 425.224898 115.543459 
L 419.844333 120.878367 
L 416.966531 122.479596 
L 408.708163 122.154089 
" style="fill:none;stroke:#3b528b;stroke-width:1.5;"/>
    <path clip-path="url(#ped1168c7ae)" d="M 408.708163 67.617474 
L 407.658676 67.194286 
L 400.449796 64.016268 
L 396.591376 61.229388 
L 392.191429 56.022519 
L 391.605527 55.26449 
L 391.30705 49.299592 
L 392.191429 48.047595 
L 395.831043 43.334694 
L 400.449796 40.0986 
L 406.830907 37.369796 
L 408.708163 36.717555 
L 416.966531 36.531797 
L 419.605673 37.369796 
L 425.224898 39.565879 
L 430.442801 43.334694 
L 433.483265 47.393378 
L 434.64347 49.299592 
L 434.386289 55.26449 
L 433.483265 56.620404 
L 429.705251 61.229388 
L 425.224898 64.565445 
L 418.699914 67.194286 
L 416.966531 67.83306 
L 408.708163 67.617474 
" style="fill:none;stroke:#3b528b;stroke-width:1.5;"/>
    <path clip-path="url(#ped1168c7ae)" d="M 119.665306 62.191452 
L 118.107066 61.229388 
L 112.210314 55.26449 
L 111.828561 49.299592 
L 117.217573 43.334694 
L 119.665306 41.868736 
L 127.923673 39.831768 
L 136.182041 41.286068 
L 140.138452 43.334694 
L 144.440408 47.45153 
L 145.996459 49.299592 
L 145.640677 55.26449 
L 144.440408 56.567259 
L 139.109634 61.229388 
L 136.182041 62.792119 
L 127.923673 64.291343 
L 119.665306 62.191452 
" style="fill:none;stroke:#3b528b;stroke-width:1.5;"/>
    <path clip-path="url(#ped1168c7ae)" d="M 193.990612 55.660987 
L 193.403026 55.26449 
L 192.830751 49.299592 
L 193.990612 48.44319 
L 202.24898 48.095342 
L 204.22242 49.299592 
L 203.529978 55.26449 
L 202.24898 55.978883 
L 193.990612 55.660987 
" style="fill:none;stroke:#3b528b;stroke-width:1.5;"/>
    <path clip-path="url(#ped1168c7ae)" d="M 317.866122 56.777942 
L 316.099893 55.26449 
L 315.64923 49.299592 
L 317.866122 47.220997 
L 325.252272 43.334694 
L 326.12449 43.086377 
L 328.144732 43.334694 
L 334.382857 44.751772 
L 339.394795 49.299592 
L 338.929125 55.26449 
L 334.382857 59.034555 
L 326.12449 60.749026 
L 317.866122 56.777942 
" style="fill:none;stroke:#3b528b;stroke-width:1.5;"/>
   </g>
   <g id="LineCollection_4">
    <path clip-path="url(#ped1168c7ae)" d="M 104.79591 317.72 
L 111.406939 313.446729 
L 114.754158 311.755102 
L 119.665306 309.365373 
L 127.923673 307.710394 
L 136.182041 308.891971 
L 142.987724 311.755102 
L 144.440408 312.389841 
L 152.698776 316.868142 
L 154.754871 317.72 
" style="fill:none;stroke:#2c728e;stroke-width:1.5;"/>
    <path clip-path="url(#ped1168c7ae)" d="M 180.842739 317.72 
L 185.732245 315.626771 
L 193.990612 312.842623 
L 202.24898 312.683799 
L 210.507347 314.984781 
L 218.765714 317.232195 
L 227.024082 316.891829 
L 235.282449 315.189298 
L 243.540816 315.695702 
L 251.799184 315.751111 
L 260.057551 316.257515 
L 268.315918 314.554985 
L 276.574286 314.214619 
L 284.832653 316.462032 
L 289.347577 317.72 
" style="fill:none;stroke:#2c728e;stroke-width:1.5;"/>
    <path clip-path="url(#ped1168c7ae)" d="M 303.972082 317.72 
L 309.607755 315.820042 
L 317.866122 312.284582 
L 320.070088 311.755102 
L 326.12449 310.354671 
L 334.382857 311.17939 
L 335.826089 311.755102 
L 342.641224 314.578672 
L 348.434101 317.72 
" style="fill:none;stroke:#2c728e;stroke-width:1.5;"/>
    <path clip-path="url(#ped1168c7ae)" d="M 384.366371 317.72 
L 392.191429 312.661998 
L 393.725333 311.755102 
L 400.449796 307.927187 
L 406.600386 305.790204 
L 408.708163 304.888839 
L 416.966531 304.660205 
L 419.857914 305.790204 
L 425.224898 307.494366 
L 432.485414 311.755102 
L 433.483265 312.36329 
L 440.623866 317.72 
" style="fill:none;stroke:#2c728e;stroke-width:1.5;"/>
    <path clip-path="url(#ped1168c7ae)" d="M 45.34 307.103033 
L 52.029473 311.755102 
L 53.598367 312.888291 
L 60.03913 317.72 
" style="fill:none;stroke:#2c728e;stroke-width:1.5;"/>
    <path clip-path="url(#ped1168c7ae)" d="M 45.34 238.691239 
L 46.519393 240.176327 
L 52.719574 246.141224 
L 53.598367 247.190477 
L 57.562355 252.106122 
L 59.198243 258.07102 
L 56.906934 264.035918 
L 53.598367 267.583169 
L 51.25632 270.000816 
L 45.34 274.775866 
" style="fill:none;stroke:#2c728e;stroke-width:1.5;"/>
    <path clip-path="url(#ped1168c7ae)" d="M 45.34 141.476895 
L 47.081649 144.737959 
L 50.19318 150.702857 
L 49.721946 156.667755 
L 47.364802 162.632653 
L 48.065915 168.597551 
L 48.142629 174.562449 
L 48.843742 180.527347 
L 46.486598 186.492245 
L 46.015364 192.457143 
L 49.126895 198.422041 
L 52.312591 204.386939 
L 52.0927 210.351837 
L 48.238063 216.316735 
L 45.34 219.848353 
" style="fill:none;stroke:#2c728e;stroke-width:1.5;"/>
    <path clip-path="url(#ped1168c7ae)" d="M 45.34 98.799563 
L 49.689151 102.983673 
L 53.598367 107.906146 
L 54.395438 108.948571 
L 55.537256 114.913469 
L 53.598367 119.286475 
L 52.865305 120.878367 
L 47.970481 126.843265 
L 45.34 130.91383 
" style="fill:none;stroke:#2c728e;stroke-width:1.5;"/>
    <path clip-path="url(#ped1168c7ae)" d="M 45.34 32.212245 
L 52.756335 37.369796 
L 53.598367 38.090529 
L 59.497332 43.334694 
L 61.856735 47.211188 
L 63.421212 49.299592 
L 63.10467 55.26449 
L 61.856735 56.786907 
L 58.898094 61.229388 
L 53.598367 66.086369 
L 52.342774 67.194286 
L 45.34 72.84621 
" style="fill:none;stroke:#2c728e;stroke-width:1.5;"/>
    <path clip-path="url(#ped1168c7ae)" d="M 408.708163 277.259843 
L 405.772617 275.965714 
L 400.449796 273.819376 
L 394.669862 270.000816 
L 392.191429 267.906583 
L 388.00151 264.035918 
L 385.342281 258.07102 
L 387.240846 252.106122 
L 392.191429 246.816405 
L 392.882266 246.141224 
L 400.449796 240.181815 
L 400.461215 240.176327 
L 408.708163 234.988123 
L 416.966531 234.651775 
L 425.224898 239.399815 
L 425.955686 240.176327 
L 433.303219 246.141224 
L 433.483265 246.322626 
L 438.147091 252.106122 
L 439.782978 258.07102 
L 437.491669 264.035918 
L 433.483265 268.333493 
L 431.569188 270.000816 
L 425.224898 274.321696 
L 420.763673 275.965714 
L 416.966531 277.495539 
L 408.708163 277.259843 
" style="fill:none;stroke:#2c728e;stroke-width:1.5;"/>
    <path clip-path="url(#ped1168c7ae)" d="M 119.665306 272.150258 
L 115.859138 270.000816 
L 111.406939 266.785058 
L 108.431049 264.035918 
L 105.77182 258.07102 
L 107.670385 252.106122 
L 111.406939 248.1136 
L 113.767876 246.141224 
L 119.665306 242.171386 
L 126.86167 240.176327 
L 127.923673 239.790969 
L 129.411171 240.176327 
L 136.182041 241.516487 
L 144.128492 246.141224 
L 144.440408 246.366517 
L 150.84333 252.106122 
L 152.698776 256.996623 
L 153.232301 258.07102 
L 152.698776 258.83809 
L 149.936627 264.035918 
L 144.440408 268.295546 
L 141.709666 270.000816 
L 136.182041 272.699675 
L 127.923673 274.07098 
L 119.665306 272.150258 
" style="fill:none;stroke:#2c728e;stroke-width:1.5;"/>
    <path clip-path="url(#ped1168c7ae)" d="M 326.12449 271.002106 
L 322.394587 270.000816 
L 317.866122 268.44598 
L 310.658294 264.035918 
L 309.607755 262.475217 
L 305.843208 258.07102 
L 309.483354 252.106122 
L 309.607755 252.036795 
L 317.866122 246.192519 
L 317.995287 246.141224 
L 326.12449 243.539971 
L 334.382857 244.680878 
L 337.029177 246.141224 
L 342.641224 249.984753 
L 345.007758 252.106122 
L 347.270827 258.07102 
L 344.101054 264.035918 
L 342.641224 265.167302 
L 334.478211 270.000816 
L 334.382857 270.044961 
L 326.12449 271.002106 
" style="fill:none;stroke:#2c728e;stroke-width:1.5;"/>
    <path clip-path="url(#ped1168c7ae)" d="M 193.990612 267.648437 
L 186.492993 264.035918 
L 185.732245 263.145908 
L 182.316237 258.07102 
L 185.182825 252.106122 
L 185.732245 251.717309 
L 193.990612 247.114986 
L 202.24898 246.852443 
L 210.507347 250.656071 
L 213.730716 252.106122 
L 218.240213 258.07102 
L 211.923976 264.035918 
L 210.507347 264.586896 
L 202.24898 267.875425 
L 193.990612 267.648437 
" style="fill:none;stroke:#2c728e;stroke-width:1.5;"/>
    <path clip-path="url(#ped1168c7ae)" d="M 235.282449 264.294603 
L 234.404476 264.035918 
L 227.024082 258.755891 
L 222.235565 258.07102 
L 227.024082 257.111755 
L 232.019503 252.106122 
L 235.282449 250.994146 
L 243.540816 251.831255 
L 251.799184 251.922848 
L 253.607245 252.106122 
L 260.057551 254.028636 
L 261.976143 252.106122 
L 268.315918 249.945597 
L 276.574286 249.382957 
L 282.627702 252.106122 
L 284.832653 255.022703 
L 287.083547 258.07102 
L 284.832653 260.247377 
L 280.820962 264.035918 
L 276.574286 265.687601 
L 268.315918 265.201155 
L 264.361116 264.035918 
L 260.057551 260.957094 
L 251.799184 262.714422 
L 243.540816 262.906703 
L 238.234195 264.035918 
L 235.282449 264.294603 
" style="fill:none;stroke:#2c728e;stroke-width:1.5;"/>
    <path clip-path="url(#ped1168c7ae)" d="M 408.708163 224.331794 
L 406.818496 222.281633 
L 400.449796 218.404177 
L 398.357139 216.316735 
L 393.648092 210.351837 
L 393.37946 204.386939 
L 397.271291 198.422041 
L 400.449796 193.434319 
L 401.470063 192.457143 
L 400.526856 186.492245 
L 400.449796 186.394819 
L 397.617207 180.527347 
L 398.473727 174.562449 
L 398.567444 168.597551 
L 399.423965 162.632653 
L 396.544342 156.667755 
L 395.968655 150.702857 
L 399.769881 144.737959 
L 400.449796 143.695872 
L 405.712203 138.773061 
L 405.272077 132.808163 
L 400.449796 129.079938 
L 398.684033 126.843265 
L 392.704233 120.878367 
L 392.191429 119.966828 
L 389.59112 114.913469 
L 390.916282 108.948571 
L 392.191429 107.511639 
L 396.584406 102.983673 
L 400.449796 99.939689 
L 406.526807 97.018776 
L 408.708163 95.717557 
L 416.966531 95.398632 
L 419.938425 97.018776 
L 425.224898 99.34093 
L 429.712012 102.983673 
L 433.483265 106.990884 
L 434.980173 108.948571 
L 436.121991 114.913469 
L 433.483265 120.864902 
L 433.475917 120.878367 
L 427.6753 126.843265 
L 425.224898 130.043042 
L 421.311372 132.808163 
L 420.829779 138.773061 
L 425.224898 142.530533 
L 426.621989 144.737959 
L 430.309313 150.702857 
L 429.750876 156.667755 
L 426.957539 162.632653 
L 427.788395 168.597551 
L 427.879304 174.562449 
L 428.710159 180.527347 
L 425.916823 186.492245 
L 425.358386 192.457143 
L 429.045709 198.422041 
L 432.820923 204.386939 
L 432.560341 210.351837 
L 427.992399 216.316735 
L 425.224898 219.162615 
L 419.619254 222.281633 
L 416.966531 224.911846 
L 408.708163 224.331794 
" style="fill:none;stroke:#2c728e;stroke-width:1.5;"/>
    <path clip-path="url(#ped1168c7ae)" d="M 127.923673 218.784067 
L 120.897521 216.316735 
L 119.665306 215.767257 
L 114.663795 210.351837 
L 114.34953 204.386939 
L 118.902481 198.422041 
L 119.665306 197.39883 
L 127.923673 192.836705 
L 136.182041 196.093849 
L 138.189629 198.422041 
L 143.45573 204.386939 
L 143.092241 210.351837 
L 136.720351 216.316735 
L 136.182041 216.713573 
L 127.923673 218.784067 
" style="fill:none;stroke:#2c728e;stroke-width:1.5;"/>
    <path clip-path="url(#ped1168c7ae)" d="M 326.12449 213.565889 
L 319.879995 210.351837 
L 319.218889 204.386939 
L 326.12449 200.086268 
L 334.382857 202.306765 
L 336.319662 204.386939 
L 335.936315 210.351837 
L 334.382857 211.730741 
L 326.12449 213.565889 
" style="fill:none;stroke:#2c728e;stroke-width:1.5;"/>
    <path clip-path="url(#ped1168c7ae)" d="M 127.923673 189.95092 
L 126.975474 186.492245 
L 119.665306 181.161494 
L 119.307159 180.527347 
L 119.665306 178.395344 
L 121.228699 174.562449 
L 121.49491 168.597551 
L 123.927922 162.632653 
L 119.665306 159.524251 
L 118.052043 156.667755 
L 117.378562 150.702857 
L 119.665306 147.635545 
L 124.910521 144.737959 
L 127.923673 143.112171 
L 132.144052 144.737959 
L 136.182041 146.330563 
L 139.952248 150.702857 
L 139.173276 156.667755 
L 136.182041 161.246882 
L 133.520332 162.632653 
L 136.182041 167.291615 
L 136.435783 168.597551 
L 136.562593 174.562449 
L 137.721565 180.527347 
L 136.182041 182.884125 
L 129.251771 186.492245 
L 127.923673 189.95092 
" style="fill:none;stroke:#2c728e;stroke-width:1.5;"/>
    <path clip-path="url(#ped1168c7ae)" d="M 326.12449 152.94922 
L 325.590937 150.702857 
L 326.12449 150.362651 
L 327.360313 150.702857 
L 326.12449 152.94922 
" style="fill:none;stroke:#2c728e;stroke-width:1.5;"/>
    <path clip-path="url(#ped1168c7ae)" d="M 127.923673 129.562342 
L 121.826088 126.843265 
L 119.665306 126.084476 
L 113.5596 120.878367 
L 111.406939 117.607523 
L 110.020659 114.913469 
L 111.345821 108.948571 
L 111.406939 108.879699 
L 118.098912 102.983673 
L 119.665306 101.92926 
L 127.923673 99.63978 
L 136.182041 101.274361 
L 139.119065 102.983673 
L 144.440408 107.037173 
L 146.46225 108.948571 
L 148.041829 114.913469 
L 144.440408 120.785074 
L 144.369391 120.878367 
L 136.278025 126.843265 
L 136.182041 126.933119 
L 127.923673 129.562342 
" style="fill:none;stroke:#2c728e;stroke-width:1.5;"/>
    <path clip-path="url(#ped1168c7ae)" d="M 317.866122 121.003603 
L 317.692734 120.878367 
L 313.058399 114.913469 
L 315.059222 108.948571 
L 317.866122 106.85367 
L 326.12449 103.394881 
L 334.382857 104.888175 
L 340.004453 108.948571 
L 342.07191 114.913469 
L 337.283236 120.878367 
L 334.382857 122.905751 
L 326.12449 124.350916 
L 317.866122 121.003603 
" style="fill:none;stroke:#2c728e;stroke-width:1.5;"/>
    <path clip-path="url(#ped1168c7ae)" d="M 193.990612 119.423777 
L 189.540775 114.913469 
L 192.081526 108.948571 
L 193.990612 107.826531 
L 202.24898 107.549645 
L 205.128969 108.948571 
L 208.203234 114.913469 
L 202.24898 119.901284 
L 193.990612 119.423777 
" style="fill:none;stroke:#2c728e;stroke-width:1.5;"/>
    <path clip-path="url(#ped1168c7ae)" d="M 276.574286 115.298847 
L 273.464209 114.913469 
L 276.574286 114.020852 
L 277.0453 114.913469 
L 276.574286 115.298847 
" style="fill:none;stroke:#2c728e;stroke-width:1.5;"/>
    <path clip-path="url(#ped1168c7ae)" d="M 408.708163 75.794676 
L 403.598007 73.159184 
L 400.449796 71.88972 
L 393.342587 67.194286 
L 392.191429 66.362821 
L 385.690626 61.229388 
L 383.933061 58.955481 
L 380.284238 55.26449 
L 379.902485 49.299592 
L 383.933061 44.838296 
L 384.995167 43.334694 
L 392.191429 37.822361 
L 392.837357 37.369796 
L 400.449796 33.036399 
L 405.145524 31.404898 
L 408.708163 30.119283 
L 416.966531 29.926352 
L 421.449849 31.404898 
L 425.224898 32.603578 
L 433.346782 37.369796 
L 433.483265 37.468376 
L 440.082067 43.334694 
L 441.741633 46.061357 
L 443.788671 49.299592 
L 443.521559 55.26449 
L 441.741633 57.837732 
L 439.482829 61.229388 
L 433.483265 66.727741 
L 432.856692 67.194286 
L 425.224898 72.39204 
L 423.143169 73.159184 
L 416.966531 76.07041 
L 408.708163 75.794676 
" style="fill:none;stroke:#2c728e;stroke-width:1.5;"/>
    <path clip-path="url(#ped1168c7ae)" d="M 119.665306 70.220602 
L 114.306393 67.194286 
L 111.406939 65.404149 
L 106.120165 61.229388 
L 103.148571 57.384792 
L 101.356858 55.26449 
L 101.030538 49.299592 
L 103.148571 46.556971 
L 105.424706 43.334694 
L 111.406939 38.752306 
L 113.715338 37.369796 
L 119.665306 34.474585 
L 127.923673 32.819605 
L 136.182041 34.001183 
L 144.189259 37.369796 
L 144.440408 37.499841 
L 152.698776 42.806856 
L 153.773852 43.334694 
L 160.347485 49.299592 
L 159.881814 55.26449 
L 152.698776 61.22114 
L 152.691176 61.229388 
L 144.440408 66.695304 
L 143.505624 67.194286 
L 136.182041 70.770019 
L 127.923673 72.141325 
L 119.665306 70.220602 
" style="fill:none;stroke:#2c728e;stroke-width:1.5;"/>
    <path clip-path="url(#ped1168c7ae)" d="M 326.12449 69.072451 
L 319.128143 67.194286 
L 317.866122 66.823894 
L 309.607755 62.504773 
L 306.511095 61.229388 
L 301.349388 57.746325 
L 293.09102 57.428428 
L 286.275416 61.229388 
L 284.832653 61.720481 
L 276.574286 64.46605 
L 268.315918 64.05024 
L 260.057551 61.97033 
L 251.799184 62.588983 
L 243.540816 62.656673 
L 235.282449 63.275326 
L 227.158968 61.229388 
L 227.024082 61.173728 
L 218.765714 60.492464 
L 217.41282 61.229388 
L 210.507347 63.525175 
L 202.24898 66.336188 
L 193.990612 66.142159 
L 185.732245 62.740883 
L 182.842193 61.229388 
L 177.473878 56.629369 
L 174.63544 55.26449 
L 173.832362 49.299592 
L 177.473878 47.383569 
L 181.79214 43.334694 
L 185.732245 41.335768 
L 193.990612 38.036411 
L 202.24898 37.848196 
L 210.507347 40.574978 
L 218.765714 43.238277 
L 227.024082 42.834927 
L 235.282449 40.817341 
L 243.540816 41.417455 
L 251.799184 41.483118 
L 260.057551 42.083232 
L 268.315918 40.065646 
L 276.574286 39.662296 
L 284.832653 42.325595 
L 287.888823 43.334694 
L 293.09102 46.509224 
L 301.349388 46.161376 
L 305.177682 43.334694 
L 309.607755 41.564804 
L 317.866122 37.375103 
L 317.884765 37.369796 
L 326.12449 35.463883 
L 334.382857 36.288602 
L 337.093264 37.369796 
L 342.641224 40.093717 
L 347.684583 43.334694 
L 350.899592 47.153036 
L 353.142671 49.299592 
L 352.701122 55.26449 
L 350.899592 56.840052 
L 346.855603 61.229388 
L 342.641224 64.021302 
L 336.372282 67.194286 
L 334.382857 68.115305 
L 326.12449 69.072451 
" style="fill:none;stroke:#2c728e;stroke-width:1.5;"/>
   </g>
   <g id="LineCollection_5">
    <path clip-path="url(#ped1168c7ae)" d="M 92.518153 317.72 
L 94.890204 316.864021 
L 103.498661 311.755102 
L 111.406939 306.833361 
L 113.550738 305.790204 
L 119.665306 302.128163 
L 127.923673 300.091195 
L 136.182041 301.545495 
L 152.698776 310.127569 
L 160.957143 313.486234 
L 169.21551 314.3428 
L 177.473878 312.358811 
L 185.732245 308.932352 
L 193.990612 306.251716 
L 202.24898 306.098797 
L 218.765714 310.478086 
L 227.024082 310.150375 
L 235.282449 308.511144 
L 243.540816 308.99872 
L 251.799184 309.052069 
L 260.057551 309.539645 
L 268.315918 307.900413 
L 276.574286 307.572702 
L 293.09102 311.959594 
L 301.484848 311.755102 
L 309.607755 309.118437 
L 317.866122 305.696932 
L 326.12449 303.345804 
L 334.382857 304.360877 
L 337.294046 305.790204 
L 342.641224 307.92322 
L 350.899592 312.253552 
L 359.157959 315.861982 
L 367.416327 317.089186 
L 375.674694 315.3703 
L 383.933061 311.217427 
L 392.696658 305.790204 
L 400.449796 300.358027 
L 401.695526 299.825306 
L 408.708163 294.282957 
L 416.966531 293.860408 
L 367.416327 258.07102 
L 359.157959 262.329678 
L 358.03268 264.035918 
L 350.899592 268.490329 
L 348.950602 270.000816 
L 342.641224 273.823981 
L 338.015028 275.965714 
L 334.382857 277.804113 
L 326.12449 278.850543 
L 317.866122 276.426788 
L 316.984528 275.965714 
L 309.607755 272.436845 
L 303.141291 270.000816 
L 301.349388 269.137438 
L 293.09102 268.910449 
L 290.35282 270.000816 
L 276.574286 274.230781 
L 268.315918 273.850449 
L 260.057551 271.948003 
L 251.799184 272.51387 
L 243.540816 272.575785 
L 235.282449 273.141653 
L 227.024082 271.239207 
L 218.765714 270.858874 
L 202.24898 275.941354 
L 193.990612 275.76388 
L 185.732245 272.65281 
L 180.188498 270.000816 
L 177.473878 268.339894 
L 169.21551 265.504407 
L 160.957143 266.728597 
L 155.430901 270.000816 
L 152.698776 271.265675 
L 144.440408 276.298197 
L 136.182041 280.706463 
L 129.438902 281.930612 
L 127.923673 282.381295 
L 126.841871 281.930612 
L 119.665306 280.105796 
L 111.406939 275.088839 
L 104.3626 270.000816 
L 103.148571 268.879292 
L 97.416652 264.035918 
L 94.890204 258.85239 
L 94.266237 258.07102 
L 94.890204 256.976593 
L 96.585032 252.106122 
L 103.148571 245.778723 
L 109.655749 240.176327 
L 111.406939 238.202952 
L 115.937308 234.211429 
L 117.632193 228.246531 
L 113.706476 222.281633 
L 111.406939 220.320902 
L 107.735268 216.316735 
L 103.42801 210.351837 
L 103.182299 204.386939 
L 110.218962 192.457143 
L 109.692394 186.492245 
L 107.058469 180.527347 
L 107.841909 174.562449 
L 107.92763 168.597551 
L 108.71107 162.632653 
L 106.077144 156.667755 
L 105.550576 150.702857 
L 111.406939 140.750823 
L 112.916546 138.773061 
L 112.602281 132.808163 
L 111.406939 131.513898 
L 108.034271 126.843265 
L 102.510218 120.878367 
L 99.154543 114.913469 
L 100.603319 108.948571 
L 103.148571 106.325108 
L 106.11379 102.983673 
L 111.406939 98.426502 
L 113.4982 97.018776 
L 119.665306 91.86665 
L 122.027586 91.053878 
L 127.923673 85.08898 
L 78.373469 49.299592 
L 77.788454 55.26449 
L 70.115102 60.329615 
L 69.377553 61.229388 
L 61.45855 67.194286 
L 54.342775 73.159184 
L 53.598367 73.957294 
L 48.593147 79.124082 
L 46.213358 85.08898 
L 47.912416 91.053878 
L 53.598367 97.682689 
L 58.903587 102.983673 
L 61.856735 106.845862 
L 63.83563 108.948571 
L 65.240993 114.913469 
L 61.856735 121.011159 
L 57.248815 126.843265 
L 53.53514 132.808163 
L 53.31525 138.773061 
L 56.39303 144.737959 
L 59.388876 150.702857 
L 58.935162 156.667755 
L 56.665655 162.632653 
L 57.340702 168.597551 
L 57.414563 174.562449 
L 58.089609 180.527347 
L 55.820103 186.492245 
L 55.366388 192.457143 
L 61.429489 204.386939 
L 61.217774 210.351837 
L 57.506449 216.316735 
L 52.762536 222.281633 
L 50.015715 228.246531 
L 51.201624 234.211429 
L 55.851678 240.176327 
L 67.73351 252.106122 
L 69.74698 258.07102 
L 66.926809 264.035918 
L 61.856735 268.452381 
L 60.412489 270.000816 
L 53.285066 275.965714 
L 46.525098 281.930612 
L 45.34 283.64391 
L 45.34 283.64391 
" style="fill:none;stroke:#21918c;stroke-width:1.5;"/>
    <path clip-path="url(#ped1168c7ae)" d="M 45.34 298.935132 
L 45.90272 299.825306 
L 52.871506 305.790204 
L 53.598367 306.295686 
L 61.156897 311.755102 
L 61.856735 312.280104 
L 70.115102 317.313555 
L 71.347543 317.72 
" style="fill:none;stroke:#21918c;stroke-width:1.5;"/>
    <path clip-path="url(#ped1168c7ae)" d="M 450 59.51609 
L 448.814902 61.229388 
L 442.054934 67.194286 
L 441.741633 67.44715 
L 434.927511 73.159184 
L 433.483265 74.707619 
L 428.413191 79.124082 
L 425.59302 85.08898 
L 427.60649 91.053878 
L 433.483265 96.974884 
L 433.518659 97.018776 
L 439.488322 102.983673 
L 441.741633 105.9306 
L 444.138376 108.948571 
L 445.324285 114.913469 
L 442.577464 120.878367 
L 441.741633 121.896923 
L 437.833551 126.843265 
L 434.122226 132.808163 
L 433.910511 138.773061 
L 436.977766 144.737959 
L 439.973612 150.702857 
L 439.519897 156.667755 
L 437.250391 162.632653 
L 437.925437 168.597551 
L 437.999298 174.562449 
L 438.674345 180.527347 
L 436.404838 186.492245 
L 435.951124 192.457143 
L 438.94697 198.422041 
L 441.741633 203.856829 
L 442.02475 204.386939 
L 441.80486 210.351837 
L 441.741633 210.449678 
L 438.091185 216.316735 
L 433.483265 222.148841 
L 433.35413 222.281633 
L 430.099007 228.246531 
L 431.50437 234.211429 
L 433.483265 236.314138 
L 436.436413 240.176327 
L 441.741633 245.477311 
L 442.431734 246.141224 
L 447.427584 252.106122 
L 449.126642 258.07102 
L 446.746853 264.035918 
L 441.741633 269.202706 
L 440.997225 270.000816 
L 433.88145 275.965714 
L 433.483265 276.330634 
L 425.962447 281.930612 
L 425.224898 282.830385 
L 417.551546 287.89551 
L 416.966531 293.860408 
L 425.224898 299.825306 
L 425.224898 299.825306 
L 433.483265 305.790204 
L 433.483265 305.790204 
L 441.741633 311.755102 
L 450 317.72 
" style="fill:none;stroke:#21918c;stroke-width:1.5;"/>
    <path clip-path="url(#ped1168c7ae)" d="M 45.34 25.44 
L 53.598367 31.404898 
L 61.856735 37.369796 
L 61.856735 37.369796 
L 70.115102 43.334694 
L 70.115102 43.334694 
L 78.373469 49.299592 
L 86.631837 48.877043 
L 93.644474 43.334694 
L 94.890204 42.801973 
L 102.643342 37.369796 
L 103.148571 37.082193 
L 111.406939 31.942573 
L 112.511918 31.404898 
L 119.665306 27.7897 
L 127.923673 26.070814 
L 136.182041 27.298018 
L 144.440408 30.906448 
L 145.359592 31.404898 
L 152.698776 35.23678 
L 158.045954 37.369796 
L 160.957143 38.799123 
L 169.21551 39.814196 
L 177.473878 37.463068 
L 177.657728 37.369796 
L 185.732245 34.041563 
L 193.855152 31.404898 
L 193.990612 31.35923 
L 202.24898 31.200406 
L 202.982913 31.404898 
L 210.507347 33.423442 
L 218.765714 35.587298 
L 227.024082 35.259587 
L 235.282449 33.620355 
L 243.540816 34.107931 
L 251.799184 34.16128 
L 260.057551 34.648856 
L 268.315918 33.009625 
L 276.574286 32.681914 
L 284.832653 34.84577 
L 293.09102 37.061203 
L 301.349388 36.908284 
L 309.607755 34.227648 
L 316.455938 31.404898 
L 317.866122 30.801189 
L 326.12449 28.8172 
L 334.382857 29.673766 
L 338.561221 31.404898 
L 342.641224 33.032431 
L 350.899592 37.344231 
L 350.960359 37.369796 
L 359.157959 41.614505 
L 367.416327 43.068805 
L 375.674694 41.031837 
L 381.789262 37.369796 
L 383.933061 36.326639 
L 391.841339 31.404898 
L 392.191429 31.178605 
L 400.449796 26.295979 
L 402.821847 25.44 
" style="fill:none;stroke:#21918c;stroke-width:1.5;"/>
    <path clip-path="url(#ped1168c7ae)" d="M 423.992457 25.44 
L 425.224898 25.846445 
L 433.483265 30.879896 
L 434.183103 31.404898 
L 441.741633 36.864314 
L 442.468494 37.369796 
L 449.43728 43.334694 
L 450 44.224868 
" style="fill:none;stroke:#21918c;stroke-width:1.5;"/>
    <path clip-path="url(#ped1168c7ae)" d="M 359.157959 252.106122 
L 367.416327 258.07102 
L 373.312414 252.106122 
L 375.674694 251.29335 
L 381.8418 246.141224 
L 383.933061 244.733498 
L 389.22621 240.176327 
L 392.191429 236.834892 
L 394.736681 234.211429 
L 396.185457 228.246531 
L 392.829782 222.281633 
L 392.191429 221.64487 
L 387.305729 216.316735 
L 383.933061 211.646102 
L 382.737719 210.351837 
L 382.423454 204.386939 
L 383.933061 202.409177 
L 389.789424 192.457143 
L 389.262856 186.492245 
L 386.62893 180.527347 
L 387.41237 174.562449 
L 387.498091 168.597551 
L 388.281531 162.632653 
L 385.647606 156.667755 
L 385.121038 150.702857 
L 392.157701 138.773061 
L 391.91199 132.808163 
L 387.604732 126.843265 
L 383.933061 122.839098 
L 381.633524 120.878367 
L 377.707807 114.913469 
L 379.402692 108.948571 
L 383.933061 104.957048 
L 385.684251 102.983673 
L 392.651749 97.018776 
L 398.754968 91.053878 
L 400.449796 86.183407 
L 401.073763 85.08898 
L 400.449796 84.30761 
L 397.923348 79.124082 
L 390.9774 73.159184 
L 383.933061 68.071161 
L 382.380317 67.194286 
L 375.674694 63.054204 
L 368.498129 61.229388 
L 367.416327 60.778705 
L 365.901098 61.229388 
L 359.157959 62.453537 
L 350.397711 67.194286 
L 342.641224 71.894325 
L 339.909099 73.159184 
L 334.382857 76.431403 
L 326.12449 77.655593 
L 317.866122 74.820106 
L 315.151502 73.159184 
L 309.607755 70.50719 
L 301.349388 67.39612 
L 293.09102 67.218646 
L 276.574286 72.301126 
L 268.315918 71.920793 
L 260.057551 70.018347 
L 251.799184 70.584215 
L 243.540816 70.64613 
L 235.282449 71.211997 
L 227.024082 69.309551 
L 218.765714 68.929219 
L 204.98718 73.159184 
L 202.24898 74.249551 
L 193.990612 74.022562 
L 192.198709 73.159184 
L 185.732245 70.723155 
L 177.473878 66.733212 
L 169.21551 64.309457 
L 160.957143 65.355887 
L 157.324972 67.194286 
L 152.698776 69.336019 
L 146.389398 73.159184 
L 144.440408 74.669671 
L 137.30732 79.124082 
L 136.182041 80.830322 
L 127.923673 85.08898 
L 169.21551 114.913469 
L 172.780969 108.948571 
L 177.473878 106.983076 
L 182.832567 102.983673 
L 185.732245 101.330223 
L 193.990612 97.621861 
L 202.24898 97.410314 
L 218.765714 103.618345 
L 227.138979 102.983673 
L 235.282449 100.747528 
L 243.540816 101.422036 
L 251.799184 101.495838 
L 260.057551 102.170346 
L 268.315918 99.90265 
L 276.574286 99.449298 
L 286.290206 102.983673 
L 293.09102 106.287101 
L 301.349388 106.010215 
L 306.498871 102.983673 
L 309.607755 101.587651 
L 317.866122 96.844777 
L 326.12449 93.565154 
L 334.382857 94.981095 
L 337.358133 97.018776 
L 342.641224 99.9342 
L 346.863203 102.983673 
L 350.899592 106.799573 
L 353.720748 108.948571 
L 355.681111 114.913469 
L 350.899592 121.055957 
L 344.57401 126.843265 
L 342.641224 129.088767 
L 338.450995 132.808163 
L 338.067648 138.773061 
L 342.641224 143.68519 
L 347.534547 150.702857 
L 346.906883 156.667755 
L 343.767272 162.632653 
L 344.701124 168.597551 
L 344.803303 174.562449 
L 345.737155 180.527347 
L 342.584052 186.492245 
L 341.762525 192.457143 
L 342.641224 193.423381 
L 350.357508 204.386939 
L 350.064623 210.351837 
L 344.930418 216.316735 
L 342.641224 218.41113 
L 337.104074 222.281633 
L 334.382857 225.671252 
L 326.12449 228.246531 
L 359.157959 252.106122 
L 359.157959 252.106122 
" style="fill:none;stroke:#21918c;stroke-width:1.5;"/>
    <path clip-path="url(#ped1168c7ae)" d="M 160.957143 248.178905 
L 169.21551 249.594846 
L 177.473878 246.315223 
L 177.719749 246.141224 
L 185.732245 241.572349 
L 188.841129 240.176327 
L 193.990612 237.149785 
L 202.24898 236.872899 
L 209.049794 240.176327 
L 210.507347 240.717247 
L 218.765714 243.710702 
L 227.024082 243.25735 
L 235.282449 240.989654 
L 243.540816 241.664162 
L 251.799184 241.737964 
L 260.057551 242.412472 
L 268.201021 240.176327 
L 268.315918 240.135032 
L 276.574286 239.541655 
L 277.912038 240.176327 
L 284.832653 242.684879 
L 293.09102 245.749686 
L 301.349388 245.538139 
L 309.607755 241.829777 
L 312.507433 240.176327 
L 317.866122 236.176924 
L 322.559031 234.211429 
L 326.12449 228.246531 
L 317.866122 222.281633 
L 317.866122 222.281633 
L 309.607755 216.316735 
L 309.607755 216.316735 
L 301.349388 210.351837 
L 301.349388 210.351837 
L 293.09102 204.386939 
L 301.349388 203.975215 
L 307.703478 198.422041 
L 309.607755 196.718124 
L 313.357812 192.457143 
L 312.562763 186.492245 
L 309.607755 182.060055 
L 308.310119 180.527347 
L 309.607755 175.374383 
L 309.768769 174.562449 
L 309.898197 168.597551 
L 311.081089 162.632653 
L 309.607755 160.422812 
L 306.428611 156.667755 
L 305.419015 150.702857 
L 309.607755 146.954839 
L 311.558814 144.737959 
L 316.933604 138.773061 
L 316.562612 132.808163 
L 310.05921 126.843265 
L 309.607755 126.517186 
L 301.349388 121.819874 
L 293.09102 121.551912 
L 284.832653 125.434044 
L 281.763395 126.843265 
L 276.574286 129.868731 
L 268.315918 129.139515 
L 263.117064 126.843265 
L 260.057551 125.779097 
L 251.799184 126.633484 
L 243.540816 126.726967 
L 242.416698 126.843265 
L 235.282449 127.780529 
L 233.160424 126.843265 
L 227.024082 124.708907 
L 218.765714 124.134654 
L 212.866409 126.843265 
L 210.507347 128.218697 
L 202.819009 132.808163 
L 202.24898 138.773061 
L 193.990612 132.808163 
L 193.990612 132.808163 
L 185.732245 126.843265 
L 185.732245 126.843265 
L 177.473878 120.878367 
L 177.473878 120.878367 
L 169.21551 114.913469 
L 160.957143 117.488748 
L 158.235926 120.878367 
L 152.698776 124.74887 
L 150.409582 126.843265 
L 145.275377 132.808163 
L 144.982492 138.773061 
L 149.225698 144.737959 
L 152.698776 149.736619 
L 153.577475 150.702857 
L 152.755948 156.667755 
L 152.698776 156.750744 
L 149.602845 162.632653 
L 150.536697 168.597551 
L 150.638876 174.562449 
L 151.572728 180.527347 
L 148.433117 186.492245 
L 147.805453 192.457143 
L 151.949874 198.422041 
L 152.698776 199.47481 
L 157.272352 204.386939 
L 156.889005 210.351837 
L 152.698776 214.071233 
L 150.76599 216.316735 
L 144.440408 222.104043 
L 144.199509 222.281633 
L 139.658889 228.246531 
L 141.619252 234.211429 
L 144.440408 236.360427 
L 148.476797 240.176327 
L 152.698776 243.2258 
L 157.981867 246.141224 
L 160.957143 248.178905 
" style="fill:none;stroke:#21918c;stroke-width:1.5;"/>
    <path clip-path="url(#ped1168c7ae)" d="M 185.732245 216.642814 
L 185.28079 216.316735 
L 178.777388 210.351837 
L 178.406396 204.386939 
L 183.781186 198.422041 
L 185.732245 196.205161 
L 189.920985 192.457143 
L 188.911389 186.492245 
L 185.732245 182.737188 
L 184.258911 180.527347 
L 185.441803 174.562449 
L 185.571231 168.597551 
L 185.732245 167.785617 
L 187.029881 162.632653 
L 185.732245 161.099945 
L 182.777237 156.667755 
L 181.982188 150.702857 
L 185.732245 146.441876 
L 187.636522 144.737959 
L 193.990612 139.184785 
L 202.24898 138.773061 
L 210.507347 144.737959 
L 210.507347 144.737959 
L 218.765714 150.702857 
L 217.515003 156.667755 
L 211.258867 162.632653 
L 213.119704 168.597551 
L 213.32331 174.562449 
L 215.184147 180.527347 
L 210.507347 184.986431 
L 208.96478 186.492245 
L 207.743186 192.457143 
L 210.507347 194.501244 
L 215.935667 198.422041 
L 218.765714 200.418554 
L 227.024082 199.536215 
L 229.108872 198.422041 
L 235.282449 195.044056 
L 243.540816 196.388112 
L 251.799184 196.535173 
L 260.057551 197.879229 
L 268.315918 193.360513 
L 276.574286 192.457143 
L 284.832653 198.422041 
L 284.832653 198.422041 
L 293.09102 204.386939 
L 292.520991 210.351837 
L 284.832653 214.941303 
L 282.473591 216.316735 
L 276.574286 219.025346 
L 268.315918 218.451093 
L 262.179576 216.316735 
L 260.057551 215.379471 
L 252.923302 216.316735 
L 251.799184 216.433033 
L 243.540816 216.526516 
L 235.282449 217.380903 
L 232.222936 216.316735 
L 227.024082 214.020485 
L 218.765714 213.291269 
L 213.576605 216.316735 
L 210.507347 217.725956 
L 202.24898 221.608088 
L 193.990612 221.340126 
L 185.732245 216.642814 
" style="fill:none;stroke:#21918c;stroke-width:1.5;"/>
    <path clip-path="url(#ped1168c7ae)" d="M 268.315918 186.492245 
L 268.315918 186.492245 
L 260.057551 180.527347 
L 251.799184 182.301558 
L 243.540816 182.495685 
L 235.282449 184.269896 
L 230.100911 180.527347 
L 232.557296 174.562449 
L 232.826064 168.597551 
L 235.282449 162.632653 
L 227.024082 156.667755 
L 227.024082 156.667755 
L 218.765714 150.702857 
L 227.024082 149.799487 
L 235.282449 145.280771 
L 243.540816 146.624827 
L 251.799184 146.771888 
L 260.057551 148.115944 
L 266.231128 144.737959 
L 268.315918 143.623785 
L 276.574286 142.741446 
L 279.404333 144.737959 
L 284.832653 148.658756 
L 287.596814 150.702857 
L 286.37522 156.667755 
L 284.832653 158.173569 
L 280.155853 162.632653 
L 282.01669 168.597551 
L 282.220296 174.562449 
L 284.081133 180.527347 
L 277.824997 186.492245 
L 276.574286 192.457143 
L 268.315918 186.492245 
" style="fill:none;stroke:#21918c;stroke-width:1.5;"/>
    <path clip-path="url(#ped1168c7ae)" d="M 260.057551 180.527347 
L 262.513936 174.562449 
L 262.782704 168.597551 
L 265.239089 162.632653 
L 260.057551 158.890104 
L 251.799184 160.664315 
L 243.540816 160.858442 
L 235.282449 162.632653 
L 243.540816 168.597551 
L 251.799184 174.562449 
L 260.057551 180.527347 
" style="fill:none;stroke:#21918c;stroke-width:1.5;"/>
   </g>
   <g id="LineCollection_6">
    <path clip-path="url(#ped1168c7ae)" d="M 450 270.31379 
L 442.997226 275.965714 
L 441.741633 277.073631 
L 436.441906 281.930612 
L 433.483265 286.373093 
L 432.23533 287.89551 
L 431.918788 293.860408 
L 433.483265 295.948812 
L 435.842668 299.825306 
L 441.741633 305.069471 
L 442.583665 305.790204 
L 450 310.947755 
" style="fill:none;stroke:#28ae80;stroke-width:1.5;"/>
    <path clip-path="url(#ped1168c7ae)" d="M 450 212.24617 
L 447.369519 216.316735 
L 442.474695 222.281633 
L 441.741633 223.873525 
L 439.802744 228.246531 
L 440.944562 234.211429 
L 441.741633 235.253854 
L 445.650849 240.176327 
L 450 244.360437 
" style="fill:none;stroke:#28ae80;stroke-width:1.5;"/>
    <path clip-path="url(#ped1168c7ae)" d="M 450 123.311647 
L 447.101937 126.843265 
L 443.2473 132.808163 
L 443.027409 138.773061 
L 446.213105 144.737959 
L 449.324636 150.702857 
L 448.853402 156.667755 
L 446.496258 162.632653 
L 447.197371 168.597551 
L 447.274085 174.562449 
L 447.975198 180.527347 
L 445.618054 186.492245 
L 445.14682 192.457143 
L 448.258351 198.422041 
L 450 201.683105 
" style="fill:none;stroke:#28ae80;stroke-width:1.5;"/>
    <path clip-path="url(#ped1168c7ae)" d="M 450 68.384134 
L 444.08368 73.159184 
L 441.741633 75.576831 
L 438.433066 79.124082 
L 436.141757 85.08898 
L 437.777645 91.053878 
L 441.741633 95.969523 
L 442.620426 97.018776 
L 448.820607 102.983673 
L 450 104.468761 
" style="fill:none;stroke:#28ae80;stroke-width:1.5;"/>
    <path clip-path="url(#ped1168c7ae)" d="M 54.716134 25.44 
L 61.856735 30.79671 
L 62.854586 31.404898 
L 70.115102 35.665634 
L 75.482086 37.369796 
L 78.373469 38.499795 
L 86.631837 38.271161 
L 88.739614 37.369796 
L 94.890204 35.232813 
L 101.614667 31.404898 
L 103.148571 30.498002 
L 110.973629 25.44 
" style="fill:none;stroke:#28ae80;stroke-width:1.5;"/>
    <path clip-path="url(#ped1168c7ae)" d="M 146.905899 25.44 
L 152.698776 28.581328 
L 159.513911 31.404898 
L 160.957143 31.98061 
L 169.21551 32.805329 
L 175.269912 31.404898 
L 177.473878 30.875418 
L 185.732245 27.339958 
L 191.367918 25.44 
" style="fill:none;stroke:#28ae80;stroke-width:1.5;"/>
    <path clip-path="url(#ped1168c7ae)" d="M 205.992423 25.44 
L 210.507347 26.697968 
L 218.765714 28.945381 
L 227.024082 28.605015 
L 235.282449 26.902485 
L 243.540816 27.408889 
L 251.799184 27.464298 
L 260.057551 27.970702 
L 268.315918 26.268171 
L 276.574286 25.927805 
L 284.832653 28.175219 
L 293.09102 30.476201 
L 301.349388 30.317377 
L 309.607755 27.533229 
L 314.497261 25.44 
" style="fill:none;stroke:#28ae80;stroke-width:1.5;"/>
    <path clip-path="url(#ped1168c7ae)" d="M 340.585129 25.44 
L 342.641224 26.291858 
L 350.899592 30.770159 
L 352.352276 31.404898 
L 359.157959 34.268029 
L 367.416327 35.449606 
L 375.674694 33.794627 
L 380.585842 31.404898 
L 383.933061 29.713271 
L 390.54409 25.44 
" style="fill:none;stroke:#28ae80;stroke-width:1.5;"/>
    <path clip-path="url(#ped1168c7ae)" d="M 435.30087 25.44 
L 441.741633 30.271709 
L 443.310527 31.404898 
L 450 36.056967 
" style="fill:none;stroke:#28ae80;stroke-width:1.5;"/>
    <path clip-path="url(#ped1168c7ae)" d="M 78.373469 313.233648 
L 86.631837 313.040717 
L 90.194476 311.755102 
L 94.890204 310.123601 
L 102.502643 305.790204 
L 103.148571 305.337639 
L 110.344833 299.825306 
L 111.406939 298.321704 
L 115.437515 293.860408 
L 115.055762 287.89551 
L 111.406939 284.204519 
L 109.649374 281.930612 
L 103.148571 276.797179 
L 101.997413 275.965714 
L 94.890204 271.27028 
L 91.741993 270.000816 
L 86.631837 267.365324 
L 78.373469 267.08959 
L 72.196831 270.000816 
L 70.115102 270.76796 
L 62.483308 275.965714 
L 61.856735 276.432259 
L 55.857171 281.930612 
L 53.598367 285.322268 
L 51.818441 287.89551 
L 51.551329 293.860408 
L 53.598367 297.098643 
L 55.257933 299.825306 
L 61.856735 305.691624 
L 61.993218 305.790204 
L 70.115102 310.556422 
L 73.890151 311.755102 
L 78.373469 313.233648 
" style="fill:none;stroke:#28ae80;stroke-width:1.5;"/>
    <path clip-path="url(#ped1168c7ae)" d="M 160.957143 306.871398 
L 169.21551 307.696117 
L 177.455235 305.790204 
L 177.473878 305.784897 
L 185.732245 301.595196 
L 190.162318 299.825306 
L 193.990612 296.998624 
L 202.24898 296.650776 
L 207.451177 299.825306 
L 210.507347 300.834405 
L 218.765714 303.497704 
L 227.024082 303.094354 
L 235.282449 301.076768 
L 243.540816 301.676882 
L 251.799184 301.742545 
L 260.057551 302.342659 
L 268.315918 300.325073 
L 276.574286 299.921723 
L 284.832653 302.585022 
L 293.09102 305.311804 
L 301.349388 305.123589 
L 309.607755 301.824232 
L 313.54786 299.825306 
L 317.866122 295.776431 
L 321.507638 293.860408 
L 320.70456 287.89551 
L 317.866122 286.530631 
L 312.497807 281.930612 
L 309.607755 280.419117 
L 301.349388 277.017841 
L 293.09102 276.823812 
L 284.832653 279.634825 
L 277.92718 281.930612 
L 276.574286 282.667536 
L 268.315918 281.986272 
L 268.181032 281.930612 
L 260.057551 279.884674 
L 251.799184 280.503327 
L 243.540816 280.571017 
L 235.282449 281.18967 
L 227.024082 279.10976 
L 218.765714 278.69395 
L 210.507347 281.439519 
L 209.064584 281.930612 
L 202.24898 285.731572 
L 193.990612 285.413675 
L 188.828905 281.930612 
L 185.732245 280.655227 
L 177.473878 276.336106 
L 176.211857 275.965714 
L 169.21551 274.087549 
L 160.957143 275.044695 
L 158.967718 275.965714 
L 152.698776 279.138698 
L 148.484397 281.930612 
L 144.440408 286.319948 
L 142.638878 287.89551 
L 142.197329 293.860408 
L 144.440408 296.006964 
L 147.655417 299.825306 
L 152.698776 303.066283 
L 158.246736 305.790204 
L 160.957143 306.871398 
" style="fill:none;stroke:#28ae80;stroke-width:1.5;"/>
    <path clip-path="url(#ped1168c7ae)" d="M 359.157959 309.158817 
L 367.416327 310.340395 
L 375.674694 308.685415 
L 381.624662 305.790204 
L 383.933061 304.407694 
L 389.915294 299.825306 
L 392.191429 296.603029 
L 394.309462 293.860408 
L 393.983142 287.89551 
L 392.191429 285.775208 
L 389.219835 281.930612 
L 383.933061 277.755851 
L 381.033607 275.965714 
L 375.674694 272.939398 
L 367.416327 271.018675 
L 359.157959 272.389981 
L 351.834376 275.965714 
L 350.899592 276.464696 
L 342.648824 281.930612 
L 342.641224 281.93886 
L 335.458186 287.89551 
L 334.992515 293.860408 
L 341.566148 299.825306 
L 342.641224 300.353144 
L 350.899592 305.660159 
L 351.150741 305.790204 
L 359.157959 309.158817 
" style="fill:none;stroke:#28ae80;stroke-width:1.5;"/>
    <path clip-path="url(#ped1168c7ae)" d="M 78.373469 247.761368 
L 86.631837 247.442443 
L 88.813193 246.141224 
L 94.890204 243.220311 
L 98.755594 240.176327 
L 103.148571 235.648361 
L 104.423718 234.211429 
L 105.74888 228.246531 
L 103.148571 223.193172 
L 102.635767 222.281633 
L 96.655967 216.316735 
L 94.890204 214.080062 
L 90.067923 210.351837 
L 89.627797 204.386939 
L 94.890204 199.464128 
L 95.570119 198.422041 
L 99.371345 192.457143 
L 98.795658 186.492245 
L 95.916035 180.527347 
L 96.772556 174.562449 
L 96.866273 168.597551 
L 97.722793 162.632653 
L 94.890204 156.765181 
L 94.813144 156.667755 
L 93.869937 150.702857 
L 94.890204 149.725681 
L 98.068709 144.737959 
L 101.96054 138.773061 
L 101.691908 132.808163 
L 96.982861 126.843265 
L 94.890204 124.755823 
L 88.521504 120.878367 
L 86.631837 118.828206 
L 78.373469 118.248154 
L 75.720746 120.878367 
L 70.115102 123.997385 
L 67.347601 126.843265 
L 62.779659 132.808163 
L 62.519077 138.773061 
L 66.294291 144.737959 
L 69.981614 150.702857 
L 69.423177 156.667755 
L 66.629841 162.632653 
L 67.460696 168.597551 
L 67.551605 174.562449 
L 68.382461 180.527347 
L 65.589124 186.492245 
L 65.030687 192.457143 
L 68.718011 198.422041 
L 70.115102 200.629467 
L 74.510221 204.386939 
L 74.028628 210.351837 
L 70.115102 213.116958 
L 67.6647 216.316735 
L 61.864083 222.281633 
L 61.856735 222.295098 
L 59.218009 228.246531 
L 60.359827 234.211429 
L 61.856735 236.169116 
L 65.627988 240.176327 
L 70.115102 243.81907 
L 75.401575 246.141224 
L 78.373469 247.761368 
" style="fill:none;stroke:#28ae80;stroke-width:1.5;"/>
    <path clip-path="url(#ped1168c7ae)" d="M 359.157959 241.885639 
L 367.416327 243.52022 
L 375.674694 241.23074 
L 377.241088 240.176327 
L 383.933061 234.280301 
L 383.994179 234.211429 
L 385.319341 228.246531 
L 383.933061 225.552477 
L 381.7804 222.281633 
L 375.674694 217.075524 
L 373.513912 216.316735 
L 367.416327 213.597658 
L 359.157959 216.226881 
L 359.061975 216.316735 
L 350.970609 222.281633 
L 350.899592 222.374926 
L 347.298171 228.246531 
L 348.87775 234.211429 
L 350.899592 236.122827 
L 356.220935 240.176327 
L 359.157959 241.885639 
" style="fill:none;stroke:#28ae80;stroke-width:1.5;"/>
    <path clip-path="url(#ped1168c7ae)" d="M 160.957143 238.271825 
L 169.21551 239.765119 
L 177.473878 236.30633 
L 180.280778 234.211429 
L 182.281601 228.246531 
L 177.647266 222.281633 
L 177.473878 222.156397 
L 169.21551 218.809084 
L 160.957143 220.254249 
L 158.056764 222.281633 
L 153.26809 228.246531 
L 155.335547 234.211429 
L 160.957143 238.271825 
" style="fill:none;stroke:#28ae80;stroke-width:1.5;"/>
    <path clip-path="url(#ped1168c7ae)" d="M 293.09102 235.610355 
L 301.349388 235.333469 
L 303.258474 234.211429 
L 305.799225 228.246531 
L 301.349388 223.736223 
L 293.09102 223.258716 
L 287.136766 228.246531 
L 290.211031 234.211429 
L 293.09102 235.610355 
" style="fill:none;stroke:#28ae80;stroke-width:1.5;"/>
    <path clip-path="url(#ped1168c7ae)" d="M 218.765714 229.139148 
L 221.875791 228.246531 
L 218.765714 227.861153 
L 218.2947 228.246531 
L 218.765714 229.139148 
" style="fill:none;stroke:#28ae80;stroke-width:1.5;"/>
    <path clip-path="url(#ped1168c7ae)" d="M 367.416327 200.047829 
L 370.429479 198.422041 
L 375.674694 195.524455 
L 377.961438 192.457143 
L 377.287957 186.492245 
L 375.674694 183.635749 
L 371.412078 180.527347 
L 373.84509 174.562449 
L 374.111301 168.597551 
L 375.674694 164.764656 
L 376.032841 162.632653 
L 375.674694 161.998506 
L 368.364526 156.667755 
L 367.416327 153.20908 
L 366.088229 156.667755 
L 359.157959 160.275875 
L 357.618435 162.632653 
L 358.777407 168.597551 
L 358.904217 174.562449 
L 359.157959 175.868385 
L 361.819668 180.527347 
L 359.157959 181.913118 
L 356.166724 186.492245 
L 355.387752 192.457143 
L 359.157959 196.829437 
L 363.195948 198.422041 
L 367.416327 200.047829 
" style="fill:none;stroke:#28ae80;stroke-width:1.5;"/>
    <path clip-path="url(#ped1168c7ae)" d="M 169.21551 192.797349 
L 169.749063 192.457143 
L 169.21551 190.21078 
L 167.979687 192.457143 
L 169.21551 192.797349 
" style="fill:none;stroke:#28ae80;stroke-width:1.5;"/>
    <path clip-path="url(#ped1168c7ae)" d="M 359.157959 147.066151 
L 367.416327 150.323295 
L 375.674694 145.76117 
L 376.437519 144.737959 
L 380.99047 138.773061 
L 380.676205 132.808163 
L 375.674694 127.392743 
L 374.442479 126.843265 
L 367.416327 124.375933 
L 359.157959 126.446427 
L 358.619649 126.843265 
L 352.247759 132.808163 
L 351.88427 138.773061 
L 357.150371 144.737959 
L 359.157959 147.066151 
" style="fill:none;stroke:#28ae80;stroke-width:1.5;"/>
    <path clip-path="url(#ped1168c7ae)" d="M 160.957143 140.853235 
L 169.21551 143.073732 
L 176.121111 138.773061 
L 175.460005 132.808163 
L 169.21551 129.594111 
L 160.957143 131.429259 
L 159.403685 132.808163 
L 159.020338 138.773061 
L 160.957143 140.853235 
" style="fill:none;stroke:#28ae80;stroke-width:1.5;"/>
    <path clip-path="url(#ped1168c7ae)" d="M 70.115102 103.760185 
L 78.373469 108.508225 
L 86.631837 108.171877 
L 94.878785 102.983673 
L 94.890204 102.978185 
L 102.457734 97.018776 
L 103.148571 96.343595 
L 108.099154 91.053878 
L 109.997719 85.08898 
L 107.33849 79.124082 
L 103.148571 75.253417 
L 100.670138 73.159184 
L 94.890204 69.340624 
L 89.567383 67.194286 
L 86.631837 65.900157 
L 78.373469 65.664461 
L 74.576327 67.194286 
L 70.115102 68.838304 
L 63.770812 73.159184 
L 61.856735 74.826507 
L 57.848331 79.124082 
L 55.557022 85.08898 
L 57.192909 91.053878 
L 61.856735 96.837374 
L 62.036781 97.018776 
L 69.384314 102.983673 
L 70.115102 103.760185 
" style="fill:none;stroke:#28ae80;stroke-width:1.5;"/>
    <path clip-path="url(#ped1168c7ae)" d="M 367.416327 103.369031 
L 368.47833 102.983673 
L 375.674694 100.988614 
L 381.572124 97.018776 
L 383.933061 95.0464 
L 387.669615 91.053878 
L 389.56818 85.08898 
L 386.908951 79.124082 
L 383.933061 76.374942 
L 379.480862 73.159184 
L 375.674694 71.009742 
L 367.416327 69.08902 
L 359.157959 70.460325 
L 353.630334 73.159184 
L 350.899592 74.864454 
L 345.403373 79.124082 
L 342.641224 84.32191 
L 342.107699 85.08898 
L 342.641224 86.163377 
L 344.49667 91.053878 
L 350.899592 96.793483 
L 351.211508 97.018776 
L 359.157959 101.643513 
L 365.928829 102.983673 
L 367.416327 103.369031 
" style="fill:none;stroke:#28ae80;stroke-width:1.5;"/>
    <path clip-path="url(#ped1168c7ae)" d="M 160.957143 98.479122 
L 169.21551 99.620029 
L 177.344713 97.018776 
L 177.473878 96.967481 
L 185.732245 91.123205 
L 185.856646 91.053878 
L 189.496792 85.08898 
L 185.732245 80.684783 
L 184.681706 79.124082 
L 177.473878 74.71402 
L 172.945413 73.159184 
L 169.21551 72.157894 
L 160.957143 73.115039 
L 160.861789 73.159184 
L 152.698776 77.992698 
L 151.238946 79.124082 
L 148.069173 85.08898 
L 150.332242 91.053878 
L 152.698776 93.175247 
L 158.310823 97.018776 
L 160.957143 98.479122 
" style="fill:none;stroke:#28ae80;stroke-width:1.5;"/>
    <path clip-path="url(#ped1168c7ae)" d="M 218.765714 93.777043 
L 227.024082 93.214403 
L 233.363857 91.053878 
L 235.282449 89.131364 
L 241.732755 91.053878 
L 243.540816 91.237152 
L 251.799184 91.328745 
L 260.057551 92.165854 
L 263.320497 91.053878 
L 268.315918 86.048245 
L 273.104435 85.08898 
L 268.315918 84.404109 
L 260.935524 79.124082 
L 260.057551 78.865397 
L 257.105805 79.124082 
L 251.799184 80.253297 
L 243.540816 80.445578 
L 235.282449 82.202906 
L 230.978884 79.124082 
L 227.024082 77.958845 
L 218.765714 77.472399 
L 214.519038 79.124082 
L 210.507347 82.912623 
L 208.256453 85.08898 
L 210.507347 88.137297 
L 212.712298 91.053878 
L 218.765714 93.777043 
" style="fill:none;stroke:#28ae80;stroke-width:1.5;"/>
    <path clip-path="url(#ped1168c7ae)" d="M 284.832653 92.503929 
L 293.09102 96.307557 
L 301.349388 96.045014 
L 309.607755 91.442691 
L 310.157175 91.053878 
L 313.023763 85.08898 
L 309.607755 80.014092 
L 308.847007 79.124082 
L 301.349388 75.511563 
L 293.09102 75.284575 
L 284.832653 78.573104 
L 283.416024 79.124082 
L 277.099787 85.08898 
L 281.609284 91.053878 
L 284.832653 92.503929 
" style="fill:none;stroke:#28ae80;stroke-width:1.5;"/>
   </g>
   <g id="LineCollection_7">
    <path clip-path="url(#ped1168c7ae)" d="M 450 278.098019 
L 445.656554 281.930612 
L 441.741633 287.590421 
L 441.538447 287.89551 
L 441.281265 293.860408 
L 441.741633 294.616791 
L 445.034176 299.825306 
L 450 304.075779 
" style="fill:none;stroke:#5ec962;stroke-width:1.5;"/>
    <path clip-path="url(#ped1168c7ae)" d="M 450 226.394558 
L 449.147171 228.246531 
L 450 232.536097 
" style="fill:none;stroke:#5ec962;stroke-width:1.5;"/>
    <path clip-path="url(#ped1168c7ae)" d="M 450 76.775235 
L 447.724603 79.124082 
L 445.344814 85.08898 
L 447.043872 91.053878 
L 450 94.583407 
" style="fill:none;stroke:#5ec962;stroke-width:1.5;"/>
    <path clip-path="url(#ped1168c7ae)" d="M 64.230347 25.44 
L 70.115102 29.026742 
L 77.326262 31.404898 
L 78.373469 31.737415 
L 86.631837 31.551656 
L 87.054231 31.404898 
L 94.890204 28.577208 
L 100.196408 25.44 
" style="fill:none;stroke:#5ec962;stroke-width:1.5;"/>
    <path clip-path="url(#ped1168c7ae)" d="M 163.276629 25.44 
L 169.21551 26.055986 
L 171.779556 25.44 
" style="fill:none;stroke:#5ec962;stroke-width:1.5;"/>
    <path clip-path="url(#ped1168c7ae)" d="M 354.271346 25.44 
L 359.157959 27.575168 
L 367.416327 28.802372 
L 375.674694 27.083486 
L 378.926658 25.44 
" style="fill:none;stroke:#5ec962;stroke-width:1.5;"/>
    <path clip-path="url(#ped1168c7ae)" d="M 444.471456 25.44 
L 450 29.433186 
" style="fill:none;stroke:#5ec962;stroke-width:1.5;"/>
    <path clip-path="url(#ped1168c7ae)" d="M 78.373469 306.628203 
L 86.631837 306.442445 
L 88.509093 305.790204 
L 94.890204 303.0614 
L 99.508957 299.825306 
L 103.148571 295.112405 
L 104.03295 293.860408 
L 103.734473 287.89551 
L 103.148571 287.137481 
L 98.748624 281.930612 
L 94.890204 279.143732 
L 87.681324 275.965714 
L 86.631837 275.542526 
L 78.373469 275.32694 
L 76.640086 275.965714 
L 70.115102 278.594555 
L 65.634749 281.930612 
L 61.856735 286.539596 
L 60.953711 287.89551 
L 60.69653 293.860408 
L 61.856735 295.766622 
L 64.897199 299.825306 
L 70.115102 303.594121 
L 75.734327 305.790204 
L 78.373469 306.628203 
" style="fill:none;stroke:#5ec962;stroke-width:1.5;"/>
    <path clip-path="url(#ped1168c7ae)" d="M 169.21551 300.073623 
L 170.087728 299.825306 
L 177.473878 295.939003 
L 179.69077 293.860408 
L 179.240107 287.89551 
L 177.473878 286.382058 
L 169.21551 282.410974 
L 160.957143 284.125445 
L 156.410875 287.89551 
L 155.945205 293.860408 
L 160.957143 298.408228 
L 167.195268 299.825306 
L 169.21551 300.073623 
" style="fill:none;stroke:#5ec962;stroke-width:1.5;"/>
    <path clip-path="url(#ped1168c7ae)" d="M 359.157959 301.873932 
L 367.416327 303.328232 
L 375.674694 301.291264 
L 378.122427 299.825306 
L 383.511439 293.860408 
L 383.129686 287.89551 
L 377.232934 281.930612 
L 375.674694 280.968548 
L 367.416327 278.868657 
L 359.157959 280.367881 
L 356.230366 281.930612 
L 350.899592 286.592741 
L 349.699323 287.89551 
L 349.343541 293.860408 
L 350.899592 295.70847 
L 355.201548 299.825306 
L 359.157959 301.873932 
" style="fill:none;stroke:#5ec962;stroke-width:1.5;"/>
    <path clip-path="url(#ped1168c7ae)" d="M 293.09102 295.064658 
L 301.349388 294.71681 
L 302.509249 293.860408 
L 301.936974 287.89551 
L 301.349388 287.499013 
L 293.09102 287.181117 
L 291.810022 287.89551 
L 291.11758 293.860408 
L 293.09102 295.064658 
" style="fill:none;stroke:#5ec962;stroke-width:1.5;"/>
    <path clip-path="url(#ped1168c7ae)" d="M 78.373469 237.831478 
L 86.631837 237.495131 
L 91.85147 234.211429 
L 94.225146 228.246531 
L 88.727203 222.281633 
L 86.631837 221.005911 
L 78.373469 220.680404 
L 75.495667 222.281633 
L 70.115102 227.616541 
L 69.771308 228.246531 
L 70.115102 229.705722 
L 72.077039 234.211429 
L 78.373469 237.831478 
" style="fill:none;stroke:#5ec962;stroke-width:1.5;"/>
    <path clip-path="url(#ped1168c7ae)" d="M 78.373469 140.198449 
L 86.631837 139.698307 
L 87.62091 138.773061 
L 87.180784 132.808163 
L 86.631837 132.383758 
L 78.373469 131.970412 
L 77.187785 132.808163 
L 76.706192 138.773061 
L 78.373469 140.198449 
" style="fill:none;stroke:#5ec962;stroke-width:1.5;"/>
    <path clip-path="url(#ped1168c7ae)" d="M 78.373469 98.142689 
L 86.631837 97.885712 
L 88.435514 97.018776 
L 94.890204 93.168435 
L 97.053797 91.053878 
L 99.129463 85.08898 
L 96.222177 79.124082 
L 94.890204 77.998588 
L 86.631837 73.73945 
L 78.373469 73.463715 
L 70.115102 77.35612 
L 68.085492 79.124082 
L 65.265321 85.08898 
L 67.278791 91.053878 
L 70.115102 93.911536 
L 75.814838 97.018776 
L 78.373469 98.142689 
" style="fill:none;stroke:#5ec962;stroke-width:1.5;"/>
    <path clip-path="url(#ped1168c7ae)" d="M 359.157959 91.512019 
L 367.416327 93.540643 
L 374.643977 91.053878 
L 375.674694 90.011132 
L 377.678467 85.08898 
L 375.674694 81.574793 
L 372.281697 79.124082 
L 367.416327 77.676785 
L 360.601635 79.124082 
L 359.157959 79.868553 
L 355.715046 85.08898 
L 358.523665 91.053878 
L 359.157959 91.512019 
" style="fill:none;stroke:#5ec962;stroke-width:1.5;"/>
   </g>
   <g id="LineCollection_8">
    <path clip-path="url(#ped1168c7ae)" d="M 78.373469 297.855026 
L 86.631837 297.432478 
L 91.151514 293.860408 
L 90.616871 287.89551 
L 86.631837 285.017179 
L 78.373469 284.631014 
L 73.427959 287.89551 
L 72.842944 293.860408 
L 78.373469 297.855026 
" style="fill:none;stroke:#addc30;stroke-width:1.5;"/>
   </g>
   <g id="LineCollection_9"/>
   <g id="line2d_11">
    <defs>
     <path d="M 0 4.242641 
L 4.242641 0 
L 0 -4.242641 
L -4.242641 0 
z
" id="m1ffd52af9d" style="stroke:#ff0000;stroke-linejoin:miter;"/>
    </defs>
    <g clip-path="url(#ped1168c7ae)">
     <use style="fill:#ff0000;stroke:#ff0000;stroke-linejoin:miter;" x="413.715624" xlink:href="#m1ffd52af9d" y="256.033594"/>
    </g>
   </g>
   <g id="line2d_12">
    <g clip-path="url(#ped1168c7ae)">
     <use style="fill:#ff0000;stroke:#ff0000;stroke-linejoin:miter;" x="405.483443" xlink:href="#m1ffd52af9d" y="250.386206"/>
    </g>
   </g>
   <g id="line2d_13">
    <g clip-path="url(#ped1168c7ae)">
     <use style="fill:#ff0000;stroke:#ff0000;stroke-linejoin:miter;" x="126.215088" xlink:href="#m1ffd52af9d" y="254.486238"/>
    </g>
   </g>
   <g id="line2d_14">
    <g clip-path="url(#ped1168c7ae)">
     <use style="fill:#ff0000;stroke:#ff0000;stroke-linejoin:miter;" x="126.106869" xlink:href="#m1ffd52af9d" y="254.051103"/>
    </g>
   </g>
   <g id="line2d_15">
    <g clip-path="url(#ped1168c7ae)">
     <use style="fill:#ff0000;stroke:#ff0000;stroke-linejoin:miter;" x="122.40566" xlink:href="#m1ffd52af9d" y="256.814108"/>
    </g>
   </g>
   <g id="line2d_16">
    <g clip-path="url(#ped1168c7ae)">
     <use style="fill:#ff0000;stroke:#ff0000;stroke-linejoin:miter;" x="132.876278" xlink:href="#m1ffd52af9d" y="252.812682"/>
    </g>
   </g>
   <g id="line2d_17">
    <g clip-path="url(#ped1168c7ae)">
     <use style="fill:#ff0000;stroke:#ff0000;stroke-linejoin:miter;" x="121.202662" xlink:href="#m1ffd52af9d" y="255.546335"/>
    </g>
   </g>
   <g id="line2d_18">
    <g clip-path="url(#ped1168c7ae)">
     <use style="fill:#ff0000;stroke:#ff0000;stroke-linejoin:miter;" x="120.609678" xlink:href="#m1ffd52af9d" y="255.447998"/>
    </g>
   </g>
   <g id="line2d_19">
    <g clip-path="url(#ped1168c7ae)">
     <use style="fill:#ff0000;stroke:#ff0000;stroke-linejoin:miter;" x="411.410811" xlink:href="#m1ffd52af9d" y="206.11892"/>
    </g>
   </g>
   <g id="line2d_20">
    <g clip-path="url(#ped1168c7ae)">
     <use style="fill:#ff0000;stroke:#ff0000;stroke-linejoin:miter;" x="410.932748" xlink:href="#m1ffd52af9d" y="206.327302"/>
    </g>
   </g>
   <g id="line2d_21">
    <g clip-path="url(#ped1168c7ae)">
     <use style="fill:#ff0000;stroke:#ff0000;stroke-linejoin:miter;" x="410.936276" xlink:href="#m1ffd52af9d" y="206.19323"/>
    </g>
   </g>
   <g id="line2d_22">
    <g clip-path="url(#ped1168c7ae)">
     <use style="fill:#ff0000;stroke:#ff0000;stroke-linejoin:miter;" x="410.952911" xlink:href="#m1ffd52af9d" y="206.150785"/>
    </g>
   </g>
   <g id="line2d_23">
    <g clip-path="url(#ped1168c7ae)">
     <use style="fill:#ff0000;stroke:#ff0000;stroke-linejoin:miter;" x="411.072993" xlink:href="#m1ffd52af9d" y="205.948531"/>
    </g>
   </g>
   <g id="line2d_24">
    <g clip-path="url(#ped1168c7ae)">
     <use style="fill:#ff0000;stroke:#ff0000;stroke-linejoin:miter;" x="410.769066" xlink:href="#m1ffd52af9d" y="206.245715"/>
    </g>
   </g>
   <g id="line2d_25">
    <g clip-path="url(#ped1168c7ae)">
     <use style="fill:#ff0000;stroke:#ff0000;stroke-linejoin:miter;" x="410.876427" xlink:href="#m1ffd52af9d" y="206.027516"/>
    </g>
   </g>
   <g id="line2d_26">
    <g clip-path="url(#ped1168c7ae)">
     <use style="fill:#ff0000;stroke:#ff0000;stroke-linejoin:miter;" x="410.551615" xlink:href="#m1ffd52af9d" y="206.578558"/>
    </g>
   </g>
   <g id="line2d_27">
    <g clip-path="url(#ped1168c7ae)">
     <use style="fill:#ff0000;stroke:#ff0000;stroke-linejoin:miter;" x="410.78434" xlink:href="#m1ffd52af9d" y="206.045546"/>
    </g>
   </g>
   <g id="line2d_28">
    <g clip-path="url(#ped1168c7ae)">
     <use style="fill:#ff0000;stroke:#ff0000;stroke-linejoin:miter;" x="410.584602" xlink:href="#m1ffd52af9d" y="206.313079"/>
    </g>
   </g>
   <g id="line2d_29">
    <g clip-path="url(#ped1168c7ae)">
     <use style="fill:#ff0000;stroke:#ff0000;stroke-linejoin:miter;" x="410.547511" xlink:href="#m1ffd52af9d" y="206.370987"/>
    </g>
   </g>
   <g id="line2d_30">
    <g clip-path="url(#ped1168c7ae)">
     <use style="fill:#ff0000;stroke:#ff0000;stroke-linejoin:miter;" x="410.844408" xlink:href="#m1ffd52af9d" y="205.925414"/>
    </g>
   </g>
   <g id="line2d_31">
    <defs>
     <path d="M -3 3 
L 3 3 
L 3 -3 
L -3 -3 
z
" id="m06a90af713" style="stroke:#00bfbf;stroke-linejoin:miter;"/>
    </defs>
    <g clip-path="url(#ped1168c7ae)">
     <use style="fill:#00bfbf;stroke:#00bfbf;stroke-linejoin:miter;" x="410.565112" xlink:href="#m06a90af713" y="206.319557"/>
    </g>
   </g>
   <g id="line2d_32">
    <g clip-path="url(#ped1168c7ae)">
     <use style="fill:#00bfbf;stroke:#00bfbf;stroke-linejoin:miter;" x="410.586876" xlink:href="#m06a90af713" y="206.235021"/>
    </g>
   </g>
   <g id="line2d_33">
    <g clip-path="url(#ped1168c7ae)">
     <use style="fill:#00bfbf;stroke:#00bfbf;stroke-linejoin:miter;" x="410.658343" xlink:href="#m06a90af713" y="205.949584"/>
    </g>
   </g>
   <g id="line2d_34">
    <g clip-path="url(#ped1168c7ae)">
     <use style="fill:#00bfbf;stroke:#00bfbf;stroke-linejoin:miter;" x="410.516494" xlink:href="#m06a90af713" y="206.120429"/>
    </g>
   </g>
   <g id="line2d_35">
    <g clip-path="url(#ped1168c7ae)">
     <use style="fill:#00bfbf;stroke:#00bfbf;stroke-linejoin:miter;" x="410.349554" xlink:href="#m06a90af713" y="206.330036"/>
    </g>
   </g>
   <g id="line2d_36">
    <g clip-path="url(#ped1168c7ae)">
     <use style="fill:#00bfbf;stroke:#00bfbf;stroke-linejoin:miter;" x="410.45871" xlink:href="#m06a90af713" y="206.123041"/>
    </g>
   </g>
   <g id="line2d_37">
    <g clip-path="url(#ped1168c7ae)">
     <use style="fill:#00bfbf;stroke:#00bfbf;stroke-linejoin:miter;" x="410.330166" xlink:href="#m06a90af713" y="206.340801"/>
    </g>
   </g>
   <g id="line2d_38">
    <g clip-path="url(#ped1168c7ae)">
     <use style="fill:#00bfbf;stroke:#00bfbf;stroke-linejoin:miter;" x="410.454518" xlink:href="#m06a90af713" y="206.115183"/>
    </g>
   </g>
   <g id="line2d_39">
    <g clip-path="url(#ped1168c7ae)">
     <use style="fill:#00bfbf;stroke:#00bfbf;stroke-linejoin:miter;" x="410.366419" xlink:href="#m06a90af713" y="206.160567"/>
    </g>
   </g>
   <g id="line2d_40">
    <g clip-path="url(#ped1168c7ae)">
     <use style="fill:#00bfbf;stroke:#00bfbf;stroke-linejoin:miter;" x="410.458765" xlink:href="#m06a90af713" y="205.921713"/>
    </g>
   </g>
   <g id="line2d_41">
    <g clip-path="url(#ped1168c7ae)">
     <use style="fill:#00bfbf;stroke:#00bfbf;stroke-linejoin:miter;" x="410.200623" xlink:href="#m06a90af713" y="206.324248"/>
    </g>
   </g>
   <g id="line2d_42">
    <g clip-path="url(#ped1168c7ae)">
     <use style="fill:#00bfbf;stroke:#00bfbf;stroke-linejoin:miter;" x="410.115894" xlink:href="#m06a90af713" y="206.489899"/>
    </g>
   </g>
   <g id="line2d_43">
    <g clip-path="url(#ped1168c7ae)">
     <use style="fill:#00bfbf;stroke:#00bfbf;stroke-linejoin:miter;" x="410.041684" xlink:href="#m06a90af713" y="206.083745"/>
    </g>
   </g>
   <g id="line2d_44">
    <g clip-path="url(#ped1168c7ae)">
     <use style="fill:#00bfbf;stroke:#00bfbf;stroke-linejoin:miter;" x="409.847866" xlink:href="#m06a90af713" y="206.425661"/>
    </g>
   </g>
   <g id="line2d_45">
    <g clip-path="url(#ped1168c7ae)">
     <use style="fill:#00bfbf;stroke:#00bfbf;stroke-linejoin:miter;" x="410.022042" xlink:href="#m06a90af713" y="205.927075"/>
    </g>
   </g>
   <g id="line2d_46">
    <g clip-path="url(#ped1168c7ae)">
     <use style="fill:#00bfbf;stroke:#00bfbf;stroke-linejoin:miter;" x="414.348332" xlink:href="#m06a90af713" y="204.335421"/>
    </g>
   </g>
   <g id="line2d_47">
    <g clip-path="url(#ped1168c7ae)">
     <use style="fill:#00bfbf;stroke:#00bfbf;stroke-linejoin:miter;" x="408.195559" xlink:href="#m06a90af713" y="206.295036"/>
    </g>
   </g>
   <g id="line2d_48">
    <g clip-path="url(#ped1168c7ae)">
     <use style="fill:#00bfbf;stroke:#00bfbf;stroke-linejoin:miter;" x="330.492323" xlink:href="#m06a90af713" y="43.812442"/>
    </g>
   </g>
   <g id="line2d_49">
    <g clip-path="url(#ped1168c7ae)">
     <use style="fill:#00bfbf;stroke:#00bfbf;stroke-linejoin:miter;" x="405.693182" xlink:href="#m06a90af713" y="208.272373"/>
    </g>
   </g>
   <g id="line2d_50">
    <g clip-path="url(#ped1168c7ae)">
     <use style="fill:#00bfbf;stroke:#00bfbf;stroke-linejoin:miter;" x="401.426151" xlink:href="#m06a90af713" y="207.533456"/>
    </g>
   </g>
   <g id="line2d_51">
    <defs>
     <path d="M 0 3 
C 0.795609 3 1.55874 2.683901 2.12132 2.12132 
C 2.683901 1.55874 3 0.795609 3 0 
C 3 -0.795609 2.683901 -1.55874 2.12132 -2.12132 
C 1.55874 -2.683901 0.795609 -3 0 -3 
C -0.795609 -3 -1.55874 -2.683901 -2.12132 -2.12132 
C -2.683901 -1.55874 -3 -0.795609 -3 0 
C -3 0.795609 -2.683901 1.55874 -2.12132 2.12132 
C -1.55874 2.683901 -0.795609 3 0 3 
z
" id="m5c8d255759" style="stroke:#000000;"/>
    </defs>
    <g clip-path="url(#ped1168c7ae)">
     <use style="stroke:#000000;" x="312.840126" xlink:href="#m5c8d255759" y="174.42431"/>
    </g>
   </g>
   <g id="line2d_52">
    <g clip-path="url(#ped1168c7ae)">
     <use style="stroke:#000000;" x="327.089912" xlink:href="#m5c8d255759" y="171.759585"/>
    </g>
   </g>
   <g id="line2d_53">
    <g clip-path="url(#ped1168c7ae)">
     <use style="stroke:#000000;" x="338.633357" xlink:href="#m5c8d255759" y="191.887346"/>
    </g>
   </g>
   <g id="line2d_54">
    <g clip-path="url(#ped1168c7ae)">
     <use style="stroke:#000000;" x="312.927184" xlink:href="#m5c8d255759" y="202.857681"/>
    </g>
   </g>
   <g id="line2d_55">
    <g clip-path="url(#ped1168c7ae)">
     <use style="stroke:#000000;" x="329.838229" xlink:href="#m5c8d255759" y="208.926711"/>
    </g>
   </g>
   <g id="line2d_56">
    <g clip-path="url(#ped1168c7ae)">
     <use style="stroke:#000000;" x="324.67651" xlink:href="#m5c8d255759" y="172.50091"/>
    </g>
   </g>
   <g id="line2d_57">
    <g clip-path="url(#ped1168c7ae)">
     <use style="stroke:#000000;" x="317.209636" xlink:href="#m5c8d255759" y="183.191291"/>
    </g>
   </g>
   <g id="line2d_58">
    <g clip-path="url(#ped1168c7ae)">
     <use style="stroke:#000000;" x="316.616652" xlink:href="#m5c8d255759" y="183.092955"/>
    </g>
   </g>
   <g id="line2d_59">
    <g clip-path="url(#ped1168c7ae)">
     <use style="stroke:#000000;" x="328.883252" xlink:href="#m5c8d255759" y="180.457638"/>
    </g>
   </g>
   <g id="line2d_60">
    <g clip-path="url(#ped1168c7ae)">
     <use style="stroke:#000000;" x="322.113844" xlink:href="#m5c8d255759" y="181.696059"/>
    </g>
   </g>
   <g id="line2d_61">
    <defs>
     <path d="M -1.5 3 
L 0 1.5 
L 1.5 3 
L 3 1.5 
L 1.5 0 
L 3 -1.5 
L 1.5 -3 
L 0 -1.5 
L -1.5 -3 
L -3 -1.5 
L -1.5 0 
L -3 1.5 
z
" id="m0da05475fa" style="stroke:#0000ff;stroke-linejoin:miter;"/>
    </defs>
    <g clip-path="url(#ped1168c7ae)">
     <use style="fill:#0000ff;stroke:#0000ff;stroke-linejoin:miter;" x="284.116798" xlink:href="#m0da05475fa" y="236.475196"/>
    </g>
   </g>
   <g id="patch_3">
    <path d="M 45.34 317.72 
L 45.34 25.44 
" style="fill:none;stroke:#000000;stroke-linecap:square;stroke-linejoin:miter;stroke-width:0.8;"/>
   </g>
   <g id="patch_4">
    <path d="M 450 317.72 
L 450 25.44 
" style="fill:none;stroke:#000000;stroke-linecap:square;stroke-linejoin:miter;stroke-width:0.8;"/>
   </g>
   <g id="patch_5">
    <path d="M 45.34 317.72 
L 450 317.72 
" style="fill:none;stroke:#000000;stroke-linecap:square;stroke-linejoin:miter;stroke-width:0.8;"/>
   </g>
   <g id="patch_6">
    <path d="M 45.34 25.44 
L 450 25.44 
" style="fill:none;stroke:#000000;stroke-linecap:square;stroke-linejoin:miter;stroke-width:0.8;"/>
   </g>
   <g id="text_11">
    <!-- Iteration 10 -->
    <defs>
     <path d="M 9.8125 72.90625 
L 19.671875 72.90625 
L 19.671875 0 
L 9.8125 0 
z
" id="DejaVuSans-73"/>
     <path d="M 18.3125 70.21875 
L 18.3125 54.6875 
L 36.8125 54.6875 
L 36.8125 47.703125 
L 18.3125 47.703125 
L 18.3125 18.015625 
Q 18.3125 11.328125 20.140625 9.421875 
Q 21.96875 7.515625 27.59375 7.515625 
L 36.8125 7.515625 
L 36.8125 0 
L 27.59375 0 
Q 17.1875 0 13.234375 3.875 
Q 9.28125 7.765625 9.28125 18.015625 
L 9.28125 47.703125 
L 2.6875 47.703125 
L 2.6875 54.6875 
L 9.28125 54.6875 
L 9.28125 70.21875 
z
" id="DejaVuSans-116"/>
     <path d="M 56.203125 29.59375 
L 56.203125 25.203125 
L 14.890625 25.203125 
Q 15.484375 15.921875 20.484375 11.0625 
Q 25.484375 6.203125 34.421875 6.203125 
Q 39.59375 6.203125 44.453125 7.46875 
Q 49.3125 8.734375 54.109375 11.28125 
L 54.109375 2.78125 
Q 49.265625 0.734375 44.1875 -0.34375 
Q 39.109375 -1.421875 33.890625 -1.421875 
Q 20.796875 -1.421875 13.15625 6.1875 
Q 5.515625 13.8125 5.515625 26.8125 
Q 5.515625 40.234375 12.765625 48.109375 
Q 20.015625 56 32.328125 56 
Q 43.359375 56 49.78125 48.890625 
Q 56.203125 41.796875 56.203125 29.59375 
z
M 47.21875 32.234375 
Q 47.125 39.59375 43.09375 43.984375 
Q 39.0625 48.390625 32.421875 48.390625 
Q 24.90625 48.390625 20.390625 44.140625 
Q 15.875 39.890625 15.1875 32.171875 
z
" id="DejaVuSans-101"/>
     <path d="M 41.109375 46.296875 
Q 39.59375 47.171875 37.8125 47.578125 
Q 36.03125 48 33.890625 48 
Q 26.265625 48 22.1875 43.046875 
Q 18.109375 38.09375 18.109375 28.8125 
L 18.109375 0 
L 9.078125 0 
L 9.078125 54.6875 
L 18.109375 54.6875 
L 18.109375 46.1875 
Q 20.953125 51.171875 25.484375 53.578125 
Q 30.03125 56 36.53125 56 
Q 37.453125 56 38.578125 55.875 
Q 39.703125 55.765625 41.0625 55.515625 
z
" id="DejaVuSans-114"/>
     <path d="M 34.28125 27.484375 
Q 23.390625 27.484375 19.1875 25 
Q 14.984375 22.515625 14.984375 16.5 
Q 14.984375 11.71875 18.140625 8.90625 
Q 21.296875 6.109375 26.703125 6.109375 
Q 34.1875 6.109375 38.703125 11.40625 
Q 43.21875 16.703125 43.21875 25.484375 
L 43.21875 27.484375 
z
M 52.203125 31.203125 
L 52.203125 0 
L 43.21875 0 
L 43.21875 8.296875 
Q 40.140625 3.328125 35.546875 0.953125 
Q 30.953125 -1.421875 24.3125 -1.421875 
Q 15.921875 -1.421875 10.953125 3.296875 
Q 6 8.015625 6 15.921875 
Q 6 25.140625 12.171875 29.828125 
Q 18.359375 34.515625 30.609375 34.515625 
L 43.21875 34.515625 
L 43.21875 35.40625 
Q 43.21875 41.609375 39.140625 45 
Q 35.0625 48.390625 27.6875 48.390625 
Q 23 48.390625 18.546875 47.265625 
Q 14.109375 46.140625 10.015625 43.890625 
L 10.015625 52.203125 
Q 14.9375 54.109375 19.578125 55.046875 
Q 24.21875 56 28.609375 56 
Q 40.484375 56 46.34375 49.84375 
Q 52.203125 43.703125 52.203125 31.203125 
z
" id="DejaVuSans-97"/>
     <path d="M 9.421875 54.6875 
L 18.40625 54.6875 
L 18.40625 0 
L 9.421875 0 
z
M 9.421875 75.984375 
L 18.40625 75.984375 
L 18.40625 64.59375 
L 9.421875 64.59375 
z
" id="DejaVuSans-105"/>
     <path d="M 30.609375 48.390625 
Q 23.390625 48.390625 19.1875 42.75 
Q 14.984375 37.109375 14.984375 27.296875 
Q 14.984375 17.484375 19.15625 11.84375 
Q 23.34375 6.203125 30.609375 6.203125 
Q 37.796875 6.203125 41.984375 11.859375 
Q 46.1875 17.53125 46.1875 27.296875 
Q 46.1875 37.015625 41.984375 42.703125 
Q 37.796875 48.390625 30.609375 48.390625 
z
M 30.609375 56 
Q 42.328125 56 49.015625 48.375 
Q 55.71875 40.765625 55.71875 27.296875 
Q 55.71875 13.875 49.015625 6.21875 
Q 42.328125 -1.421875 30.609375 -1.421875 
Q 18.84375 -1.421875 12.171875 6.21875 
Q 5.515625 13.875 5.515625 27.296875 
Q 5.515625 40.765625 12.171875 48.375 
Q 18.84375 56 30.609375 56 
z
" id="DejaVuSans-111"/>
     <path d="M 54.890625 33.015625 
L 54.890625 0 
L 45.90625 0 
L 45.90625 32.71875 
Q 45.90625 40.484375 42.875 44.328125 
Q 39.84375 48.1875 33.796875 48.1875 
Q 26.515625 48.1875 22.3125 43.546875 
Q 18.109375 38.921875 18.109375 30.90625 
L 18.109375 0 
L 9.078125 0 
L 9.078125 54.6875 
L 18.109375 54.6875 
L 18.109375 46.1875 
Q 21.34375 51.125 25.703125 53.5625 
Q 30.078125 56 35.796875 56 
Q 45.21875 56 50.046875 50.171875 
Q 54.890625 44.34375 54.890625 33.015625 
z
" id="DejaVuSans-110"/>
     <path id="DejaVuSans-32"/>
     <path d="M 12.40625 8.296875 
L 28.515625 8.296875 
L 28.515625 63.921875 
L 10.984375 60.40625 
L 10.984375 69.390625 
L 28.421875 72.90625 
L 38.28125 72.90625 
L 38.28125 8.296875 
L 54.390625 8.296875 
L 54.390625 0 
L 12.40625 0 
z
" id="DejaVuSans-49"/>
    </defs>
    <g transform="translate(212.677812 19.44)scale(0.12 -0.12)">
     <use xlink:href="#DejaVuSans-73"/>
     <use x="29.492188" xlink:href="#DejaVuSans-116"/>
     <use x="68.701172" xlink:href="#DejaVuSans-101"/>
     <use x="130.224609" xlink:href="#DejaVuSans-114"/>
     <use x="171.337891" xlink:href="#DejaVuSans-97"/>
     <use x="232.617188" xlink:href="#DejaVuSans-116"/>
     <use x="271.826172" xlink:href="#DejaVuSans-105"/>
     <use x="299.609375" xlink:href="#DejaVuSans-111"/>
     <use x="360.791016" xlink:href="#DejaVuSans-110"/>
     <use x="424.169922" xlink:href="#DejaVuSans-32"/>
     <use x="455.957031" xlink:href="#DejaVuSans-49"/>
     <use x="519.580078" xlink:href="#DejaVuSans-48"/>
    </g>
   </g>
   <g id="legend_1">
    <g id="patch_7">
     <path d="M 52.34 92.1525 
L 134.30875 92.1525 
Q 136.30875 92.1525 136.30875 90.1525 
L 136.30875 32.44 
Q 136.30875 30.44 134.30875 30.44 
L 52.34 30.44 
Q 50.34 30.44 50.34 32.44 
L 50.34 90.1525 
Q 50.34 92.1525 52.34 92.1525 
z
" style="fill:#ffffff;opacity:0.8;stroke:#cccccc;stroke-linejoin:miter;"/>
    </g>
    <g id="line2d_62"/>
    <g id="line2d_63">
     <g>
      <use style="fill:#ff0000;stroke:#ff0000;stroke-linejoin:miter;" x="64.34" xlink:href="#m1ffd52af9d" y="38.538437"/>
     </g>
    </g>
    <g id="text_12">
     <!-- Elites -->
     <defs>
      <path d="M 9.8125 72.90625 
L 55.90625 72.90625 
L 55.90625 64.59375 
L 19.671875 64.59375 
L 19.671875 43.015625 
L 54.390625 43.015625 
L 54.390625 34.71875 
L 19.671875 34.71875 
L 19.671875 8.296875 
L 56.78125 8.296875 
L 56.78125 0 
L 9.8125 0 
z
" id="DejaVuSans-69"/>
      <path d="M 9.421875 75.984375 
L 18.40625 75.984375 
L 18.40625 0 
L 9.421875 0 
z
" id="DejaVuSans-108"/>
      <path d="M 44.28125 53.078125 
L 44.28125 44.578125 
Q 40.484375 46.53125 36.375 47.5 
Q 32.28125 48.484375 27.875 48.484375 
Q 21.1875 48.484375 17.84375 46.4375 
Q 14.5 44.390625 14.5 40.28125 
Q 14.5 37.15625 16.890625 35.375 
Q 19.28125 33.59375 26.515625 31.984375 
L 29.59375 31.296875 
Q 39.15625 29.25 43.1875 25.515625 
Q 47.21875 21.78125 47.21875 15.09375 
Q 47.21875 7.46875 41.1875 3.015625 
Q 35.15625 -1.421875 24.609375 -1.421875 
Q 20.21875 -1.421875 15.453125 -0.5625 
Q 10.6875 0.296875 5.421875 2 
L 5.421875 11.28125 
Q 10.40625 8.6875 15.234375 7.390625 
Q 20.0625 6.109375 24.8125 6.109375 
Q 31.15625 6.109375 34.5625 8.28125 
Q 37.984375 10.453125 37.984375 14.40625 
Q 37.984375 18.0625 35.515625 20.015625 
Q 33.0625 21.96875 24.703125 23.78125 
L 21.578125 24.515625 
Q 13.234375 26.265625 9.515625 29.90625 
Q 5.8125 33.546875 5.8125 39.890625 
Q 5.8125 47.609375 11.28125 51.796875 
Q 16.75 56 26.8125 56 
Q 31.78125 56 36.171875 55.265625 
Q 40.578125 54.546875 44.28125 53.078125 
z
" id="DejaVuSans-115"/>
     </defs>
     <g transform="translate(82.34 42.038437)scale(0.1 -0.1)">
      <use xlink:href="#DejaVuSans-69"/>
      <use x="63.183594" xlink:href="#DejaVuSans-108"/>
      <use x="90.966797" xlink:href="#DejaVuSans-105"/>
      <use x="118.75" xlink:href="#DejaVuSans-116"/>
      <use x="157.958984" xlink:href="#DejaVuSans-101"/>
      <use x="219.482422" xlink:href="#DejaVuSans-115"/>
     </g>
    </g>
    <g id="line2d_64"/>
    <g id="line2d_65">
     <g>
      <use style="fill:#00bfbf;stroke:#00bfbf;stroke-linejoin:miter;" x="64.34" xlink:href="#m06a90af713" y="53.216562"/>
     </g>
    </g>
    <g id="text_13">
     <!-- Swarming -->
     <defs>
      <path d="M 53.515625 70.515625 
L 53.515625 60.890625 
Q 47.90625 63.578125 42.921875 64.890625 
Q 37.9375 66.21875 33.296875 66.21875 
Q 25.25 66.21875 20.875 63.09375 
Q 16.5 59.96875 16.5 54.203125 
Q 16.5 49.359375 19.40625 46.890625 
Q 22.3125 44.4375 30.421875 42.921875 
L 36.375 41.703125 
Q 47.40625 39.59375 52.65625 34.296875 
Q 57.90625 29 57.90625 20.125 
Q 57.90625 9.515625 50.796875 4.046875 
Q 43.703125 -1.421875 29.984375 -1.421875 
Q 24.8125 -1.421875 18.96875 -0.25 
Q 13.140625 0.921875 6.890625 3.21875 
L 6.890625 13.375 
Q 12.890625 10.015625 18.65625 8.296875 
Q 24.421875 6.59375 29.984375 6.59375 
Q 38.421875 6.59375 43.015625 9.90625 
Q 47.609375 13.234375 47.609375 19.390625 
Q 47.609375 24.75 44.3125 27.78125 
Q 41.015625 30.8125 33.5 32.328125 
L 27.484375 33.5 
Q 16.453125 35.6875 11.515625 40.375 
Q 6.59375 45.0625 6.59375 53.421875 
Q 6.59375 63.09375 13.40625 68.65625 
Q 20.21875 74.21875 32.171875 74.21875 
Q 37.3125 74.21875 42.625 73.28125 
Q 47.953125 72.359375 53.515625 70.515625 
z
" id="DejaVuSans-83"/>
      <path d="M 4.203125 54.6875 
L 13.1875 54.6875 
L 24.421875 12.015625 
L 35.59375 54.6875 
L 46.1875 54.6875 
L 57.421875 12.015625 
L 68.609375 54.6875 
L 77.59375 54.6875 
L 63.28125 0 
L 52.6875 0 
L 40.921875 44.828125 
L 29.109375 0 
L 18.5 0 
z
" id="DejaVuSans-119"/>
      <path d="M 52 44.1875 
Q 55.375 50.25 60.0625 53.125 
Q 64.75 56 71.09375 56 
Q 79.640625 56 84.28125 50.015625 
Q 88.921875 44.046875 88.921875 33.015625 
L 88.921875 0 
L 79.890625 0 
L 79.890625 32.71875 
Q 79.890625 40.578125 77.09375 44.375 
Q 74.3125 48.1875 68.609375 48.1875 
Q 61.625 48.1875 57.5625 43.546875 
Q 53.515625 38.921875 53.515625 30.90625 
L 53.515625 0 
L 44.484375 0 
L 44.484375 32.71875 
Q 44.484375 40.625 41.703125 44.40625 
Q 38.921875 48.1875 33.109375 48.1875 
Q 26.21875 48.1875 22.15625 43.53125 
Q 18.109375 38.875 18.109375 30.90625 
L 18.109375 0 
L 9.078125 0 
L 9.078125 54.6875 
L 18.109375 54.6875 
L 18.109375 46.1875 
Q 21.1875 51.21875 25.484375 53.609375 
Q 29.78125 56 35.6875 56 
Q 41.65625 56 45.828125 52.96875 
Q 50 49.953125 52 44.1875 
z
" id="DejaVuSans-109"/>
      <path d="M 45.40625 27.984375 
Q 45.40625 37.75 41.375 43.109375 
Q 37.359375 48.484375 30.078125 48.484375 
Q 22.859375 48.484375 18.828125 43.109375 
Q 14.796875 37.75 14.796875 27.984375 
Q 14.796875 18.265625 18.828125 12.890625 
Q 22.859375 7.515625 30.078125 7.515625 
Q 37.359375 7.515625 41.375 12.890625 
Q 45.40625 18.265625 45.40625 27.984375 
z
M 54.390625 6.78125 
Q 54.390625 -7.171875 48.1875 -13.984375 
Q 42 -20.796875 29.203125 -20.796875 
Q 24.46875 -20.796875 20.265625 -20.09375 
Q 16.0625 -19.390625 12.109375 -17.921875 
L 12.109375 -9.1875 
Q 16.0625 -11.328125 19.921875 -12.34375 
Q 23.78125 -13.375 27.78125 -13.375 
Q 36.625 -13.375 41.015625 -8.765625 
Q 45.40625 -4.15625 45.40625 5.171875 
L 45.40625 9.625 
Q 42.625 4.78125 38.28125 2.390625 
Q 33.9375 0 27.875 0 
Q 17.828125 0 11.671875 7.65625 
Q 5.515625 15.328125 5.515625 27.984375 
Q 5.515625 40.671875 11.671875 48.328125 
Q 17.828125 56 27.875 56 
Q 33.9375 56 38.28125 53.609375 
Q 42.625 51.21875 45.40625 46.390625 
L 45.40625 54.6875 
L 54.390625 54.6875 
z
" id="DejaVuSans-103"/>
     </defs>
     <g transform="translate(82.34 56.716562)scale(0.1 -0.1)">
      <use xlink:href="#DejaVuSans-83"/>
      <use x="63.476562" xlink:href="#DejaVuSans-119"/>
      <use x="145.263672" xlink:href="#DejaVuSans-97"/>
      <use x="206.542969" xlink:href="#DejaVuSans-114"/>
      <use x="247.640625" xlink:href="#DejaVuSans-109"/>
      <use x="345.052734" xlink:href="#DejaVuSans-105"/>
      <use x="372.835938" xlink:href="#DejaVuSans-110"/>
      <use x="436.214844" xlink:href="#DejaVuSans-103"/>
     </g>
    </g>
    <g id="line2d_66"/>
    <g id="line2d_67">
     <g>
      <use style="stroke:#000000;" x="64.34" xlink:href="#m5c8d255759" y="67.894687"/>
     </g>
    </g>
    <g id="text_14">
     <!-- Running -->
     <defs>
      <path d="M 44.390625 34.1875 
Q 47.5625 33.109375 50.5625 29.59375 
Q 53.5625 26.078125 56.59375 19.921875 
L 66.609375 0 
L 56 0 
L 46.6875 18.703125 
Q 43.0625 26.03125 39.671875 28.421875 
Q 36.28125 30.8125 30.421875 30.8125 
L 19.671875 30.8125 
L 19.671875 0 
L 9.8125 0 
L 9.8125 72.90625 
L 32.078125 72.90625 
Q 44.578125 72.90625 50.734375 67.671875 
Q 56.890625 62.453125 56.890625 51.90625 
Q 56.890625 45.015625 53.6875 40.46875 
Q 50.484375 35.9375 44.390625 34.1875 
z
M 19.671875 64.796875 
L 19.671875 38.921875 
L 32.078125 38.921875 
Q 39.203125 38.921875 42.84375 42.21875 
Q 46.484375 45.515625 46.484375 51.90625 
Q 46.484375 58.296875 42.84375 61.546875 
Q 39.203125 64.796875 32.078125 64.796875 
z
" id="DejaVuSans-82"/>
      <path d="M 8.5 21.578125 
L 8.5 54.6875 
L 17.484375 54.6875 
L 17.484375 21.921875 
Q 17.484375 14.15625 20.5 10.265625 
Q 23.53125 6.390625 29.59375 6.390625 
Q 36.859375 6.390625 41.078125 11.03125 
Q 45.3125 15.671875 45.3125 23.6875 
L 45.3125 54.6875 
L 54.296875 54.6875 
L 54.296875 0 
L 45.3125 0 
L 45.3125 8.40625 
Q 42.046875 3.421875 37.71875 1 
Q 33.40625 -1.421875 27.6875 -1.421875 
Q 18.265625 -1.421875 13.375 4.4375 
Q 8.5 10.296875 8.5 21.578125 
z
M 31.109375 56 
z
" id="DejaVuSans-117"/>
     </defs>
     <g transform="translate(82.34 71.394687)scale(0.1 -0.1)">
      <use xlink:href="#DejaVuSans-82"/>
      <use x="69.419922" xlink:href="#DejaVuSans-117"/>
      <use x="132.798828" xlink:href="#DejaVuSans-110"/>
      <use x="196.177734" xlink:href="#DejaVuSans-110"/>
      <use x="259.556641" xlink:href="#DejaVuSans-105"/>
      <use x="287.339844" xlink:href="#DejaVuSans-110"/>
      <use x="350.71875" xlink:href="#DejaVuSans-103"/>
     </g>
    </g>
    <g id="line2d_68"/>
    <g id="line2d_69">
     <g>
      <use style="fill:#0000ff;stroke:#0000ff;stroke-linejoin:miter;" x="64.34" xlink:href="#m0da05475fa" y="82.572812"/>
     </g>
    </g>
    <g id="text_15">
     <!-- Center -->
     <defs>
      <path d="M 64.40625 67.28125 
L 64.40625 56.890625 
Q 59.421875 61.53125 53.78125 63.8125 
Q 48.140625 66.109375 41.796875 66.109375 
Q 29.296875 66.109375 22.65625 58.46875 
Q 16.015625 50.828125 16.015625 36.375 
Q 16.015625 21.96875 22.65625 14.328125 
Q 29.296875 6.6875 41.796875 6.6875 
Q 48.140625 6.6875 53.78125 8.984375 
Q 59.421875 11.28125 64.40625 15.921875 
L 64.40625 5.609375 
Q 59.234375 2.09375 53.4375 0.328125 
Q 47.65625 -1.421875 41.21875 -1.421875 
Q 24.65625 -1.421875 15.125 8.703125 
Q 5.609375 18.84375 5.609375 36.375 
Q 5.609375 53.953125 15.125 64.078125 
Q 24.65625 74.21875 41.21875 74.21875 
Q 47.75 74.21875 53.53125 72.484375 
Q 59.328125 70.75 64.40625 67.28125 
z
" id="DejaVuSans-67"/>
     </defs>
     <g transform="translate(82.34 86.072812)scale(0.1 -0.1)">
      <use xlink:href="#DejaVuSans-67"/>
      <use x="69.824219" xlink:href="#DejaVuSans-101"/>
      <use x="131.347656" xlink:href="#DejaVuSans-110"/>
      <use x="194.726562" xlink:href="#DejaVuSans-116"/>
      <use x="233.935547" xlink:href="#DejaVuSans-101"/>
      <use x="295.458984" xlink:href="#DejaVuSans-114"/>
     </g>
    </g>
   </g>
  </g>
 </g>
 <defs>
  <clipPath id="ped1168c7ae">
   <rect height="292.28" width="404.66" x="45.34" y="25.44"/>
  </clipPath>
 </defs>
</svg>
